ISO-10303-21;
HEADER;
/* Generated by software containing ST-Developer
 * from STEP Tools, Inc. (www.steptools.com) 
 */

FILE_DESCRIPTION(
/* description */ (''),
/* implementation_level */ '2;1');

FILE_NAME(
/* name */ 'Macropad v2.step',
/* time_stamp */ '2026-09-20T14:40:32-07:00',
/* author */ (''),
/* organization */ (''),
/* preprocessor_version */ 'ST-DEVELOPER v20.2',
/* originating_system */ 'Autodesk Translation Framework v15.15.0.0',
/* authorisation */ '');

FILE_SCHEMA (('AUTOMOTIVE_DESIGN { 1 0 10303 214 3 1 1 }'));
ENDSEC;

DATA;
#10=MECHANICAL_DESIGN_GEOMETRIC_PRESENTATION_REPRESENTATION('',(#13,#14),
#2422);
#11=SHAPE_REPRESENTATION_RELATIONSHIP('SRR','None',#2429,#12);
#12=ADVANCED_BREP_SHAPE_REPRESENTATION('',(#15,#16),#2421);
#13=STYLED_ITEM('',(#2438),#15);
#14=STYLED_ITEM('',(#2438),#16);
#15=MANIFOLD_SOLID_BREP('Body3',#1509);
#16=MANIFOLD_SOLID_BREP('Lid',#1510);
#17=CYLINDRICAL_SURFACE('',#1554,1.45);
#18=CYLINDRICAL_SURFACE('',#1557,1.45);
#19=CYLINDRICAL_SURFACE('',#1560,1.45);
#20=CYLINDRICAL_SURFACE('',#1563,1.45);
#21=CYLINDRICAL_SURFACE('',#1581,3.5);
#22=CYLINDRICAL_SURFACE('',#1584,3.5);
#23=CYLINDRICAL_SURFACE('',#1591,1.45);
#24=CYLINDRICAL_SURFACE('',#1594,1.45);
#25=CYLINDRICAL_SURFACE('',#1597,1.45);
#26=CYLINDRICAL_SURFACE('',#1600,1.45);
#27=CIRCLE('',#1553,3.5);
#28=CIRCLE('',#1555,1.45);
#29=CIRCLE('',#1556,1.45);
#30=CIRCLE('',#1558,1.45);
#31=CIRCLE('',#1559,1.45);
#32=CIRCLE('',#1561,1.45);
#33=CIRCLE('',#1562,1.45);
#34=CIRCLE('',#1564,1.45);
#35=CIRCLE('',#1565,1.45);
#36=CIRCLE('',#1582,3.5);
#37=CIRCLE('',#1585,3.5);
#38=CIRCLE('',#1586,3.5);
#39=CIRCLE('',#1592,1.45);
#40=CIRCLE('',#1593,1.45);
#41=CIRCLE('',#1595,1.45);
#42=CIRCLE('',#1596,1.45);
#43=CIRCLE('',#1598,1.45);
#44=CIRCLE('',#1599,1.45);
#45=CIRCLE('',#1601,1.45);
#46=CIRCLE('',#1602,1.45);
#47=FACE_BOUND('',#186,.T.);
#48=FACE_BOUND('',#191,.T.);
#49=FACE_BOUND('',#192,.T.);
#50=FACE_BOUND('',#193,.T.);
#51=FACE_BOUND('',#194,.T.);
#52=FACE_BOUND('',#195,.T.);
#53=FACE_BOUND('',#196,.T.);
#54=FACE_BOUND('',#202,.T.);
#55=FACE_BOUND('',#203,.T.);
#56=FACE_BOUND('',#204,.T.);
#57=FACE_BOUND('',#205,.T.);
#58=FACE_BOUND('',#206,.T.);
#59=FACE_BOUND('',#211,.T.);
#60=FACE_BOUND('',#254,.T.);
#61=FACE_BOUND('',#255,.T.);
#62=FACE_BOUND('',#256,.T.);
#63=FACE_BOUND('',#257,.T.);
#64=FACE_BOUND('',#258,.T.);
#65=FACE_BOUND('',#259,.T.);
#66=FACE_BOUND('',#260,.T.);
#67=FACE_BOUND('',#261,.T.);
#68=FACE_BOUND('',#262,.T.);
#69=FACE_BOUND('',#263,.T.);
#70=FACE_BOUND('',#265,.T.);
#71=FACE_BOUND('',#266,.T.);
#72=FACE_BOUND('',#267,.T.);
#73=FACE_BOUND('',#268,.T.);
#74=FACE_BOUND('',#269,.T.);
#75=FACE_BOUND('',#270,.T.);
#76=FACE_BOUND('',#271,.T.);
#77=FACE_BOUND('',#272,.T.);
#78=FACE_BOUND('',#273,.T.);
#79=FACE_BOUND('',#274,.T.);
#80=FACE_OUTER_BOUND('',#161,.T.);
#81=FACE_OUTER_BOUND('',#162,.T.);
#82=FACE_OUTER_BOUND('',#163,.T.);
#83=FACE_OUTER_BOUND('',#164,.T.);
#84=FACE_OUTER_BOUND('',#165,.T.);
#85=FACE_OUTER_BOUND('',#166,.T.);
#86=FACE_OUTER_BOUND('',#167,.T.);
#87=FACE_OUTER_BOUND('',#168,.T.);
#88=FACE_OUTER_BOUND('',#169,.T.);
#89=FACE_OUTER_BOUND('',#170,.T.);
#90=FACE_OUTER_BOUND('',#171,.T.);
#91=FACE_OUTER_BOUND('',#172,.T.);
#92=FACE_OUTER_BOUND('',#173,.T.);
#93=FACE_OUTER_BOUND('',#174,.T.);
#94=FACE_OUTER_BOUND('',#175,.T.);
#95=FACE_OUTER_BOUND('',#176,.T.);
#96=FACE_OUTER_BOUND('',#177,.T.);
#97=FACE_OUTER_BOUND('',#178,.T.);
#98=FACE_OUTER_BOUND('',#179,.T.);
#99=FACE_OUTER_BOUND('',#180,.T.);
#100=FACE_OUTER_BOUND('',#181,.T.);
#101=FACE_OUTER_BOUND('',#182,.T.);
#102=FACE_OUTER_BOUND('',#183,.T.);
#103=FACE_OUTER_BOUND('',#184,.T.);
#104=FACE_OUTER_BOUND('',#185,.T.);
#105=FACE_OUTER_BOUND('',#187,.T.);
#106=FACE_OUTER_BOUND('',#188,.T.);
#107=FACE_OUTER_BOUND('',#189,.T.);
#108=FACE_OUTER_BOUND('',#190,.T.);
#109=FACE_OUTER_BOUND('',#197,.T.);
#110=FACE_OUTER_BOUND('',#198,.T.);
#111=FACE_OUTER_BOUND('',#199,.T.);
#112=FACE_OUTER_BOUND('',#200,.T.);
#113=FACE_OUTER_BOUND('',#201,.T.);
#114=FACE_OUTER_BOUND('',#207,.T.);
#115=FACE_OUTER_BOUND('',#208,.T.);
#116=FACE_OUTER_BOUND('',#209,.T.);
#117=FACE_OUTER_BOUND('',#210,.T.);
#118=FACE_OUTER_BOUND('',#212,.T.);
#119=FACE_OUTER_BOUND('',#213,.T.);
#120=FACE_OUTER_BOUND('',#214,.T.);
#121=FACE_OUTER_BOUND('',#215,.T.);
#122=FACE_OUTER_BOUND('',#216,.T.);
#123=FACE_OUTER_BOUND('',#217,.T.);
#124=FACE_OUTER_BOUND('',#218,.T.);
#125=FACE_OUTER_BOUND('',#219,.T.);
#126=FACE_OUTER_BOUND('',#220,.T.);
#127=FACE_OUTER_BOUND('',#221,.T.);
#128=FACE_OUTER_BOUND('',#222,.T.);
#129=FACE_OUTER_BOUND('',#223,.T.);
#130=FACE_OUTER_BOUND('',#224,.T.);
#131=FACE_OUTER_BOUND('',#225,.T.);
#132=FACE_OUTER_BOUND('',#226,.T.);
#133=FACE_OUTER_BOUND('',#227,.T.);
#134=FACE_OUTER_BOUND('',#228,.T.);
#135=FACE_OUTER_BOUND('',#229,.T.);
#136=FACE_OUTER_BOUND('',#230,.T.);
#137=FACE_OUTER_BOUND('',#231,.T.);
#138=FACE_OUTER_BOUND('',#232,.T.);
#139=FACE_OUTER_BOUND('',#233,.T.);
#140=FACE_OUTER_BOUND('',#234,.T.);
#141=FACE_OUTER_BOUND('',#235,.T.);
#142=FACE_OUTER_BOUND('',#236,.T.);
#143=FACE_OUTER_BOUND('',#237,.T.);
#144=FACE_OUTER_BOUND('',#238,.T.);
#145=FACE_OUTER_BOUND('',#239,.T.);
#146=FACE_OUTER_BOUND('',#240,.T.);
#147=FACE_OUTER_BOUND('',#241,.T.);
#148=FACE_OUTER_BOUND('',#242,.T.);
#149=FACE_OUTER_BOUND('',#243,.T.);
#150=FACE_OUTER_BOUND('',#244,.T.);
#151=FACE_OUTER_BOUND('',#245,.T.);
#152=FACE_OUTER_BOUND('',#246,.T.);
#153=FACE_OUTER_BOUND('',#247,.T.);
#154=FACE_OUTER_BOUND('',#248,.T.);
#155=FACE_OUTER_BOUND('',#249,.T.);
#156=FACE_OUTER_BOUND('',#250,.T.);
#157=FACE_OUTER_BOUND('',#251,.T.);
#158=FACE_OUTER_BOUND('',#252,.T.);
#159=FACE_OUTER_BOUND('',#253,.T.);
#160=FACE_OUTER_BOUND('',#264,.T.);
#161=EDGE_LOOP('',(#961,#962,#963,#964));
#162=EDGE_LOOP('',(#965,#966,#967,#968));
#163=EDGE_LOOP('',(#969,#970,#971,#972));
#164=EDGE_LOOP('',(#973,#974,#975,#976));
#165=EDGE_LOOP('',(#977,#978,#979,#980));
#166=EDGE_LOOP('',(#981,#982,#983,#984));
#167=EDGE_LOOP('',(#985,#986,#987,#988));
#168=EDGE_LOOP('',(#989,#990,#991,#992));
#169=EDGE_LOOP('',(#993,#994,#995,#996));
#170=EDGE_LOOP('',(#997,#998,#999,#1000));
#171=EDGE_LOOP('',(#1001,#1002,#1003,#1004));
#172=EDGE_LOOP('',(#1005,#1006,#1007,#1008));
#173=EDGE_LOOP('',(#1009,#1010,#1011,#1012));
#174=EDGE_LOOP('',(#1013,#1014,#1015,#1016));
#175=EDGE_LOOP('',(#1017,#1018,#1019,#1020));
#176=EDGE_LOOP('',(#1021,#1022,#1023,#1024));
#177=EDGE_LOOP('',(#1025,#1026,#1027,#1028));
#178=EDGE_LOOP('',(#1029,#1030,#1031,#1032));
#179=EDGE_LOOP('',(#1033,#1034,#1035,#1036));
#180=EDGE_LOOP('',(#1037,#1038,#1039,#1040));
#181=EDGE_LOOP('',(#1041,#1042,#1043,#1044));
#182=EDGE_LOOP('',(#1045,#1046,#1047,#1048));
#183=EDGE_LOOP('',(#1049,#1050,#1051,#1052));
#184=EDGE_LOOP('',(#1053,#1054,#1055,#1056));
#185=EDGE_LOOP('',(#1057,#1058,#1059,#1060));
#186=EDGE_LOOP('',(#1061,#1062,#1063,#1064));
#187=EDGE_LOOP('',(#1065,#1066,#1067,#1068));
#188=EDGE_LOOP('',(#1069,#1070,#1071,#1072));
#189=EDGE_LOOP('',(#1073,#1074,#1075,#1076));
#190=EDGE_LOOP('',(#1077,#1078,#1079,#1080));
#191=EDGE_LOOP('',(#1081,#1082,#1083,#1084));
#192=EDGE_LOOP('',(#1085));
#193=EDGE_LOOP('',(#1086,#1087,#1088,#1089));
#194=EDGE_LOOP('',(#1090,#1091,#1092,#1093));
#195=EDGE_LOOP('',(#1094,#1095,#1096,#1097));
#196=EDGE_LOOP('',(#1098,#1099,#1100,#1101));
#197=EDGE_LOOP('',(#1102,#1103,#1104,#1105));
#198=EDGE_LOOP('',(#1106,#1107,#1108,#1109));
#199=EDGE_LOOP('',(#1110,#1111,#1112,#1113));
#200=EDGE_LOOP('',(#1114,#1115,#1116,#1117));
#201=EDGE_LOOP('',(#1118,#1119,#1120,#1121));
#202=EDGE_LOOP('',(#1122,#1123,#1124,#1125));
#203=EDGE_LOOP('',(#1126));
#204=EDGE_LOOP('',(#1127));
#205=EDGE_LOOP('',(#1128));
#206=EDGE_LOOP('',(#1129));
#207=EDGE_LOOP('',(#1130));
#208=EDGE_LOOP('',(#1131));
#209=EDGE_LOOP('',(#1132));
#210=EDGE_LOOP('',(#1133,#1134,#1135,#1136));
#211=EDGE_LOOP('',(#1137,#1138,#1139,#1140));
#212=EDGE_LOOP('',(#1141,#1142,#1143,#1144));
#213=EDGE_LOOP('',(#1145,#1146,#1147,#1148));
#214=EDGE_LOOP('',(#1149,#1150,#1151,#1152));
#215=EDGE_LOOP('',(#1153));
#216=EDGE_LOOP('',(#1154,#1155,#1156,#1157));
#217=EDGE_LOOP('',(#1158,#1159,#1160,#1161));
#218=EDGE_LOOP('',(#1162,#1163,#1164,#1165));
#219=EDGE_LOOP('',(#1166,#1167,#1168,#1169));
#220=EDGE_LOOP('',(#1170,#1171,#1172,#1173));
#221=EDGE_LOOP('',(#1174,#1175,#1176,#1177));
#222=EDGE_LOOP('',(#1178,#1179,#1180,#1181));
#223=EDGE_LOOP('',(#1182));
#224=EDGE_LOOP('',(#1183,#1184,#1185,#1186));
#225=EDGE_LOOP('',(#1187,#1188,#1189,#1190));
#226=EDGE_LOOP('',(#1191,#1192,#1193,#1194));
#227=EDGE_LOOP('',(#1195,#1196,#1197,#1198));
#228=EDGE_LOOP('',(#1199,#1200,#1201,#1202));
#229=EDGE_LOOP('',(#1203,#1204,#1205,#1206));
#230=EDGE_LOOP('',(#1207,#1208,#1209,#1210));
#231=EDGE_LOOP('',(#1211,#1212,#1213,#1214));
#232=EDGE_LOOP('',(#1215,#1216,#1217,#1218));
#233=EDGE_LOOP('',(#1219,#1220,#1221,#1222));
#234=EDGE_LOOP('',(#1223,#1224,#1225,#1226));
#235=EDGE_LOOP('',(#1227,#1228,#1229,#1230));
#236=EDGE_LOOP('',(#1231,#1232,#1233,#1234));
#237=EDGE_LOOP('',(#1235,#1236,#1237,#1238));
#238=EDGE_LOOP('',(#1239,#1240,#1241,#1242));
#239=EDGE_LOOP('',(#1243,#1244,#1245,#1246));
#240=EDGE_LOOP('',(#1247,#1248,#1249,#1250));
#241=EDGE_LOOP('',(#1251,#1252,#1253,#1254));
#242=EDGE_LOOP('',(#1255,#1256,#1257,#1258));
#243=EDGE_LOOP('',(#1259,#1260,#1261,#1262));
#244=EDGE_LOOP('',(#1263,#1264,#1265,#1266));
#245=EDGE_LOOP('',(#1267,#1268,#1269,#1270));
#246=EDGE_LOOP('',(#1271,#1272,#1273,#1274));
#247=EDGE_LOOP('',(#1275,#1276,#1277,#1278));
#248=EDGE_LOOP('',(#1279,#1280,#1281,#1282));
#249=EDGE_LOOP('',(#1283,#1284,#1285,#1286));
#250=EDGE_LOOP('',(#1287,#1288,#1289,#1290));
#251=EDGE_LOOP('',(#1291,#1292,#1293,#1294));
#252=EDGE_LOOP('',(#1295,#1296,#1297,#1298));
#253=EDGE_LOOP('',(#1299,#1300,#1301,#1302));
#254=EDGE_LOOP('',(#1303,#1304,#1305,#1306));
#255=EDGE_LOOP('',(#1307,#1308,#1309,#1310));
#256=EDGE_LOOP('',(#1311,#1312,#1313,#1314));
#257=EDGE_LOOP('',(#1315,#1316,#1317,#1318));
#258=EDGE_LOOP('',(#1319));
#259=EDGE_LOOP('',(#1320));
#260=EDGE_LOOP('',(#1321));
#261=EDGE_LOOP('',(#1322));
#262=EDGE_LOOP('',(#1323,#1324,#1325,#1326));
#263=EDGE_LOOP('',(#1327));
#264=EDGE_LOOP('',(#1328,#1329,#1330,#1331));
#265=EDGE_LOOP('',(#1332,#1333,#1334,#1335));
#266=EDGE_LOOP('',(#1336,#1337,#1338,#1339));
#267=EDGE_LOOP('',(#1340,#1341,#1342,#1343));
#268=EDGE_LOOP('',(#1344,#1345,#1346,#1347));
#269=EDGE_LOOP('',(#1348));
#270=EDGE_LOOP('',(#1349));
#271=EDGE_LOOP('',(#1350));
#272=EDGE_LOOP('',(#1351));
#273=EDGE_LOOP('',(#1352,#1353,#1354,#1355));
#274=EDGE_LOOP('',(#1356));
#275=LINE('',#2011,#453);
#276=LINE('',#2013,#454);
#277=LINE('',#2015,#455);
#278=LINE('',#2016,#456);
#279=LINE('',#2020,#457);
#280=LINE('',#2022,#458);
#281=LINE('',#2024,#459);
#282=LINE('',#2025,#460);
#283=LINE('',#2027,#461);
#284=LINE('',#2028,#462);
#285=LINE('',#2030,#463);
#286=LINE('',#2031,#464);
#287=LINE('',#2035,#465);
#288=LINE('',#2037,#466);
#289=LINE('',#2039,#467);
#290=LINE('',#2040,#468);
#291=LINE('',#2043,#469);
#292=LINE('',#2045,#470);
#293=LINE('',#2046,#471);
#294=LINE('',#2049,#472);
#295=LINE('',#2051,#473);
#296=LINE('',#2052,#474);
#297=LINE('',#2054,#475);
#298=LINE('',#2055,#476);
#299=LINE('',#2060,#477);
#300=LINE('',#2062,#478);
#301=LINE('',#2064,#479);
#302=LINE('',#2065,#480);
#303=LINE('',#2068,#481);
#304=LINE('',#2070,#482);
#305=LINE('',#2071,#483);
#306=LINE('',#2074,#484);
#307=LINE('',#2076,#485);
#308=LINE('',#2077,#486);
#309=LINE('',#2079,#487);
#310=LINE('',#2080,#488);
#311=LINE('',#2085,#489);
#312=LINE('',#2087,#490);
#313=LINE('',#2089,#491);
#314=LINE('',#2090,#492);
#315=LINE('',#2093,#493);
#316=LINE('',#2095,#494);
#317=LINE('',#2096,#495);
#318=LINE('',#2099,#496);
#319=LINE('',#2101,#497);
#320=LINE('',#2102,#498);
#321=LINE('',#2104,#499);
#322=LINE('',#2105,#500);
#323=LINE('',#2110,#501);
#324=LINE('',#2112,#502);
#325=LINE('',#2114,#503);
#326=LINE('',#2115,#504);
#327=LINE('',#2118,#505);
#328=LINE('',#2120,#506);
#329=LINE('',#2121,#507);
#330=LINE('',#2124,#508);
#331=LINE('',#2126,#509);
#332=LINE('',#2127,#510);
#333=LINE('',#2129,#511);
#334=LINE('',#2130,#512);
#335=LINE('',#2135,#513);
#336=LINE('',#2137,#514);
#337=LINE('',#2139,#515);
#338=LINE('',#2140,#516);
#339=LINE('',#2143,#517);
#340=LINE('',#2145,#518);
#341=LINE('',#2146,#519);
#342=LINE('',#2149,#520);
#343=LINE('',#2151,#521);
#344=LINE('',#2152,#522);
#345=LINE('',#2154,#523);
#346=LINE('',#2155,#524);
#347=LINE('',#2159,#525);
#348=LINE('',#2161,#526);
#349=LINE('',#2163,#527);
#350=LINE('',#2164,#528);
#351=LINE('',#2171,#529);
#352=LINE('',#2177,#530);
#353=LINE('',#2183,#531);
#354=LINE('',#2189,#532);
#355=LINE('',#2194,#533);
#356=LINE('',#2196,#534);
#357=LINE('',#2198,#535);
#358=LINE('',#2199,#536);
#359=LINE('',#2206,#537);
#360=LINE('',#2207,#538);
#361=LINE('',#2208,#539);
#362=LINE('',#2211,#540);
#363=LINE('',#2212,#541);
#364=LINE('',#2215,#542);
#365=LINE('',#2216,#543);
#366=LINE('',#2218,#544);
#367=LINE('',#2224,#545);
#368=LINE('',#2225,#546);
#369=LINE('',#2226,#547);
#370=LINE('',#2229,#548);
#371=LINE('',#2230,#549);
#372=LINE('',#2233,#550);
#373=LINE('',#2234,#551);
#374=LINE('',#2236,#552);
#375=LINE('',#2241,#553);
#376=LINE('',#2247,#554);
#377=LINE('',#2252,#555);
#378=LINE('',#2254,#556);
#379=LINE('',#2256,#557);
#380=LINE('',#2257,#558);
#381=LINE('',#2260,#559);
#382=LINE('',#2262,#560);
#383=LINE('',#2263,#561);
#384=LINE('',#2266,#562);
#385=LINE('',#2268,#563);
#386=LINE('',#2269,#564);
#387=LINE('',#2271,#565);
#388=LINE('',#2272,#566);
#389=LINE('',#2277,#567);
#390=LINE('',#2283,#568);
#391=LINE('',#2289,#569);
#392=LINE('',#2295,#570);
#393=LINE('',#2300,#571);
#394=LINE('',#2302,#572);
#395=LINE('',#2304,#573);
#396=LINE('',#2305,#574);
#397=LINE('',#2308,#575);
#398=LINE('',#2310,#576);
#399=LINE('',#2311,#577);
#400=LINE('',#2314,#578);
#401=LINE('',#2316,#579);
#402=LINE('',#2317,#580);
#403=LINE('',#2319,#581);
#404=LINE('',#2320,#582);
#405=LINE('',#2324,#583);
#406=LINE('',#2326,#584);
#407=LINE('',#2328,#585);
#408=LINE('',#2329,#586);
#409=LINE('',#2332,#587);
#410=LINE('',#2334,#588);
#411=LINE('',#2335,#589);
#412=LINE('',#2338,#590);
#413=LINE('',#2340,#591);
#414=LINE('',#2341,#592);
#415=LINE('',#2343,#593);
#416=LINE('',#2344,#594);
#417=LINE('',#2348,#595);
#418=LINE('',#2350,#596);
#419=LINE('',#2352,#597);
#420=LINE('',#2353,#598);
#421=LINE('',#2356,#599);
#422=LINE('',#2358,#600);
#423=LINE('',#2359,#601);
#424=LINE('',#2362,#602);
#425=LINE('',#2364,#603);
#426=LINE('',#2365,#604);
#427=LINE('',#2367,#605);
#428=LINE('',#2368,#606);
#429=LINE('',#2372,#607);
#430=LINE('',#2374,#608);
#431=LINE('',#2376,#609);
#432=LINE('',#2377,#610);
#433=LINE('',#2380,#611);
#434=LINE('',#2382,#612);
#435=LINE('',#2383,#613);
#436=LINE('',#2386,#614);
#437=LINE('',#2388,#615);
#438=LINE('',#2389,#616);
#439=LINE('',#2391,#617);
#440=LINE('',#2392,#618);
#441=LINE('',#2396,#619);
#442=LINE('',#2398,#620);
#443=LINE('',#2400,#621);
#444=LINE('',#2401,#622);
#445=LINE('',#2404,#623);
#446=LINE('',#2406,#624);
#447=LINE('',#2407,#625);
#448=LINE('',#2410,#626);
#449=LINE('',#2412,#627);
#450=LINE('',#2413,#628);
#451=LINE('',#2415,#629);
#452=LINE('',#2416,#630);
#453=VECTOR('',#1629,10.);
#454=VECTOR('',#1630,10.);
#455=VECTOR('',#1631,10.);
#456=VECTOR('',#1632,10.);
#457=VECTOR('',#1635,10.);
#458=VECTOR('',#1636,10.);
#459=VECTOR('',#1637,10.);
#460=VECTOR('',#1638,10.);
#461=VECTOR('',#1641,10.);
#462=VECTOR('',#1642,10.);
#463=VECTOR('',#1645,10.);
#464=VECTOR('',#1646,10.);
#465=VECTOR('',#1649,10.);
#466=VECTOR('',#1650,10.);
#467=VECTOR('',#1651,10.);
#468=VECTOR('',#1652,10.);
#469=VECTOR('',#1655,10.);
#470=VECTOR('',#1656,10.);
#471=VECTOR('',#1657,10.);
#472=VECTOR('',#1660,10.);
#473=VECTOR('',#1661,10.);
#474=VECTOR('',#1662,10.);
#475=VECTOR('',#1665,10.);
#476=VECTOR('',#1666,10.);
#477=VECTOR('',#1671,10.);
#478=VECTOR('',#1672,10.);
#479=VECTOR('',#1673,10.);
#480=VECTOR('',#1674,10.);
#481=VECTOR('',#1677,10.);
#482=VECTOR('',#1678,10.);
#483=VECTOR('',#1679,10.);
#484=VECTOR('',#1682,10.);
#485=VECTOR('',#1683,10.);
#486=VECTOR('',#1684,10.);
#487=VECTOR('',#1687,10.);
#488=VECTOR('',#1688,10.);
#489=VECTOR('',#1693,10.);
#490=VECTOR('',#1694,10.);
#491=VECTOR('',#1695,10.);
#492=VECTOR('',#1696,10.);
#493=VECTOR('',#1699,10.);
#494=VECTOR('',#1700,10.);
#495=VECTOR('',#1701,10.);
#496=VECTOR('',#1704,10.);
#497=VECTOR('',#1705,10.);
#498=VECTOR('',#1706,10.);
#499=VECTOR('',#1709,10.);
#500=VECTOR('',#1710,10.);
#501=VECTOR('',#1715,10.);
#502=VECTOR('',#1716,10.);
#503=VECTOR('',#1717,10.);
#504=VECTOR('',#1718,10.);
#505=VECTOR('',#1721,10.);
#506=VECTOR('',#1722,10.);
#507=VECTOR('',#1723,10.);
#508=VECTOR('',#1726,10.);
#509=VECTOR('',#1727,10.);
#510=VECTOR('',#1728,10.);
#511=VECTOR('',#1731,10.);
#512=VECTOR('',#1732,10.);
#513=VECTOR('',#1737,10.);
#514=VECTOR('',#1738,10.);
#515=VECTOR('',#1739,10.);
#516=VECTOR('',#1740,10.);
#517=VECTOR('',#1743,10.);
#518=VECTOR('',#1744,10.);
#519=VECTOR('',#1745,10.);
#520=VECTOR('',#1748,10.);
#521=VECTOR('',#1749,10.);
#522=VECTOR('',#1750,10.);
#523=VECTOR('',#1753,10.);
#524=VECTOR('',#1754,10.);
#525=VECTOR('',#1757,10.);
#526=VECTOR('',#1758,10.);
#527=VECTOR('',#1759,10.);
#528=VECTOR('',#1760,10.);
#529=VECTOR('',#1767,1.45);
#530=VECTOR('',#1774,1.45);
#531=VECTOR('',#1781,1.45);
#532=VECTOR('',#1788,1.45);
#533=VECTOR('',#1793,10.);
#534=VECTOR('',#1794,10.);
#535=VECTOR('',#1795,10.);
#536=VECTOR('',#1796,10.);
#537=VECTOR('',#1805,10.);
#538=VECTOR('',#1806,10.);
#539=VECTOR('',#1807,10.);
#540=VECTOR('',#1810,10.);
#541=VECTOR('',#1811,10.);
#542=VECTOR('',#1814,10.);
#543=VECTOR('',#1815,10.);
#544=VECTOR('',#1818,10.);
#545=VECTOR('',#1825,10.);
#546=VECTOR('',#1826,10.);
#547=VECTOR('',#1827,10.);
#548=VECTOR('',#1830,10.);
#549=VECTOR('',#1831,10.);
#550=VECTOR('',#1834,10.);
#551=VECTOR('',#1835,10.);
#552=VECTOR('',#1838,10.);
#553=VECTOR('',#1845,3.5);
#554=VECTOR('',#1852,3.5);
#555=VECTOR('',#1857,10.);
#556=VECTOR('',#1858,10.);
#557=VECTOR('',#1859,10.);
#558=VECTOR('',#1860,10.);
#559=VECTOR('',#1863,10.);
#560=VECTOR('',#1864,10.);
#561=VECTOR('',#1865,10.);
#562=VECTOR('',#1868,10.);
#563=VECTOR('',#1869,10.);
#564=VECTOR('',#1870,10.);
#565=VECTOR('',#1873,10.);
#566=VECTOR('',#1874,10.);
#567=VECTOR('',#1879,1.45);
#568=VECTOR('',#1886,1.45);
#569=VECTOR('',#1893,1.45);
#570=VECTOR('',#1900,1.45);
#571=VECTOR('',#1905,10.);
#572=VECTOR('',#1906,10.);
#573=VECTOR('',#1907,10.);
#574=VECTOR('',#1908,10.);
#575=VECTOR('',#1911,10.);
#576=VECTOR('',#1912,10.);
#577=VECTOR('',#1913,10.);
#578=VECTOR('',#1916,10.);
#579=VECTOR('',#1917,10.);
#580=VECTOR('',#1918,10.);
#581=VECTOR('',#1921,10.);
#582=VECTOR('',#1922,10.);
#583=VECTOR('',#1925,10.);
#584=VECTOR('',#1926,10.);
#585=VECTOR('',#1927,10.);
#586=VECTOR('',#1928,10.);
#587=VECTOR('',#1931,10.);
#588=VECTOR('',#1932,10.);
#589=VECTOR('',#1933,10.);
#590=VECTOR('',#1936,10.);
#591=VECTOR('',#1937,10.);
#592=VECTOR('',#1938,10.);
#593=VECTOR('',#1941,10.);
#594=VECTOR('',#1942,10.);
#595=VECTOR('',#1945,10.);
#596=VECTOR('',#1946,10.);
#597=VECTOR('',#1947,10.);
#598=VECTOR('',#1948,10.);
#599=VECTOR('',#1951,10.);
#600=VECTOR('',#1952,10.);
#601=VECTOR('',#1953,10.);
#602=VECTOR('',#1956,10.);
#603=VECTOR('',#1957,10.);
#604=VECTOR('',#1958,10.);
#605=VECTOR('',#1961,10.);
#606=VECTOR('',#1962,10.);
#607=VECTOR('',#1965,10.);
#608=VECTOR('',#1966,10.);
#609=VECTOR('',#1967,10.);
#610=VECTOR('',#1968,10.);
#611=VECTOR('',#1971,10.);
#612=VECTOR('',#1972,10.);
#613=VECTOR('',#1973,10.);
#614=VECTOR('',#1976,10.);
#615=VECTOR('',#1977,10.);
#616=VECTOR('',#1978,10.);
#617=VECTOR('',#1981,10.);
#618=VECTOR('',#1982,10.);
#619=VECTOR('',#1985,10.);
#620=VECTOR('',#1986,10.);
#621=VECTOR('',#1987,10.);
#622=VECTOR('',#1988,10.);
#623=VECTOR('',#1991,10.);
#624=VECTOR('',#1992,10.);
#625=VECTOR('',#1993,10.);
#626=VECTOR('',#1996,10.);
#627=VECTOR('',#1997,10.);
#628=VECTOR('',#1998,10.);
#629=VECTOR('',#2001,10.);
#630=VECTOR('',#2002,10.);
#631=VERTEX_POINT('',#2009);
#632=VERTEX_POINT('',#2010);
#633=VERTEX_POINT('',#2012);
#634=VERTEX_POINT('',#2014);
#635=VERTEX_POINT('',#2018);
#636=VERTEX_POINT('',#2019);
#637=VERTEX_POINT('',#2021);
#638=VERTEX_POINT('',#2023);
#639=VERTEX_POINT('',#2033);
#640=VERTEX_POINT('',#2034);
#641=VERTEX_POINT('',#2036);
#642=VERTEX_POINT('',#2038);
#643=VERTEX_POINT('',#2042);
#644=VERTEX_POINT('',#2044);
#645=VERTEX_POINT('',#2048);
#646=VERTEX_POINT('',#2050);
#647=VERTEX_POINT('',#2058);
#648=VERTEX_POINT('',#2059);
#649=VERTEX_POINT('',#2061);
#650=VERTEX_POINT('',#2063);
#651=VERTEX_POINT('',#2067);
#652=VERTEX_POINT('',#2069);
#653=VERTEX_POINT('',#2073);
#654=VERTEX_POINT('',#2075);
#655=VERTEX_POINT('',#2083);
#656=VERTEX_POINT('',#2084);
#657=VERTEX_POINT('',#2086);
#658=VERTEX_POINT('',#2088);
#659=VERTEX_POINT('',#2092);
#660=VERTEX_POINT('',#2094);
#661=VERTEX_POINT('',#2098);
#662=VERTEX_POINT('',#2100);
#663=VERTEX_POINT('',#2108);
#664=VERTEX_POINT('',#2109);
#665=VERTEX_POINT('',#2111);
#666=VERTEX_POINT('',#2113);
#667=VERTEX_POINT('',#2117);
#668=VERTEX_POINT('',#2119);
#669=VERTEX_POINT('',#2123);
#670=VERTEX_POINT('',#2125);
#671=VERTEX_POINT('',#2133);
#672=VERTEX_POINT('',#2134);
#673=VERTEX_POINT('',#2136);
#674=VERTEX_POINT('',#2138);
#675=VERTEX_POINT('',#2142);
#676=VERTEX_POINT('',#2144);
#677=VERTEX_POINT('',#2148);
#678=VERTEX_POINT('',#2150);
#679=VERTEX_POINT('',#2157);
#680=VERTEX_POINT('',#2158);
#681=VERTEX_POINT('',#2160);
#682=VERTEX_POINT('',#2162);
#683=VERTEX_POINT('',#2165);
#684=VERTEX_POINT('',#2168);
#685=VERTEX_POINT('',#2170);
#686=VERTEX_POINT('',#2174);
#687=VERTEX_POINT('',#2176);
#688=VERTEX_POINT('',#2180);
#689=VERTEX_POINT('',#2182);
#690=VERTEX_POINT('',#2186);
#691=VERTEX_POINT('',#2188);
#692=VERTEX_POINT('',#2192);
#693=VERTEX_POINT('',#2193);
#694=VERTEX_POINT('',#2195);
#695=VERTEX_POINT('',#2197);
#696=VERTEX_POINT('',#2204);
#697=VERTEX_POINT('',#2205);
#698=VERTEX_POINT('',#2210);
#699=VERTEX_POINT('',#2214);
#700=VERTEX_POINT('',#2222);
#701=VERTEX_POINT('',#2223);
#702=VERTEX_POINT('',#2228);
#703=VERTEX_POINT('',#2232);
#704=VERTEX_POINT('',#2239);
#705=VERTEX_POINT('',#2244);
#706=VERTEX_POINT('',#2246);
#707=VERTEX_POINT('',#2250);
#708=VERTEX_POINT('',#2251);
#709=VERTEX_POINT('',#2253);
#710=VERTEX_POINT('',#2255);
#711=VERTEX_POINT('',#2259);
#712=VERTEX_POINT('',#2261);
#713=VERTEX_POINT('',#2265);
#714=VERTEX_POINT('',#2267);
#715=VERTEX_POINT('',#2274);
#716=VERTEX_POINT('',#2276);
#717=VERTEX_POINT('',#2280);
#718=VERTEX_POINT('',#2282);
#719=VERTEX_POINT('',#2286);
#720=VERTEX_POINT('',#2288);
#721=VERTEX_POINT('',#2292);
#722=VERTEX_POINT('',#2294);
#723=VERTEX_POINT('',#2298);
#724=VERTEX_POINT('',#2299);
#725=VERTEX_POINT('',#2301);
#726=VERTEX_POINT('',#2303);
#727=VERTEX_POINT('',#2307);
#728=VERTEX_POINT('',#2309);
#729=VERTEX_POINT('',#2313);
#730=VERTEX_POINT('',#2315);
#731=VERTEX_POINT('',#2322);
#732=VERTEX_POINT('',#2323);
#733=VERTEX_POINT('',#2325);
#734=VERTEX_POINT('',#2327);
#735=VERTEX_POINT('',#2331);
#736=VERTEX_POINT('',#2333);
#737=VERTEX_POINT('',#2337);
#738=VERTEX_POINT('',#2339);
#739=VERTEX_POINT('',#2346);
#740=VERTEX_POINT('',#2347);
#741=VERTEX_POINT('',#2349);
#742=VERTEX_POINT('',#2351);
#743=VERTEX_POINT('',#2355);
#744=VERTEX_POINT('',#2357);
#745=VERTEX_POINT('',#2361);
#746=VERTEX_POINT('',#2363);
#747=VERTEX_POINT('',#2370);
#748=VERTEX_POINT('',#2371);
#749=VERTEX_POINT('',#2373);
#750=VERTEX_POINT('',#2375);
#751=VERTEX_POINT('',#2379);
#752=VERTEX_POINT('',#2381);
#753=VERTEX_POINT('',#2385);
#754=VERTEX_POINT('',#2387);
#755=VERTEX_POINT('',#2394);
#756=VERTEX_POINT('',#2395);
#757=VERTEX_POINT('',#2397);
#758=VERTEX_POINT('',#2399);
#759=VERTEX_POINT('',#2403);
#760=VERTEX_POINT('',#2405);
#761=VERTEX_POINT('',#2409);
#762=VERTEX_POINT('',#2411);
#763=EDGE_CURVE('',#631,#632,#275,.T.);
#764=EDGE_CURVE('',#633,#631,#276,.T.);
#765=EDGE_CURVE('',#633,#634,#277,.T.);
#766=EDGE_CURVE('',#632,#634,#278,.T.);
#767=EDGE_CURVE('',#635,#636,#279,.T.);
#768=EDGE_CURVE('',#637,#635,#280,.T.);
#769=EDGE_CURVE('',#637,#638,#281,.T.);
#770=EDGE_CURVE('',#636,#638,#282,.T.);
#771=EDGE_CURVE('',#634,#637,#283,.T.);
#772=EDGE_CURVE('',#638,#633,#284,.T.);
#773=EDGE_CURVE('',#631,#636,#285,.T.);
#774=EDGE_CURVE('',#635,#632,#286,.T.);
#775=EDGE_CURVE('',#639,#640,#287,.T.);
#776=EDGE_CURVE('',#639,#641,#288,.T.);
#777=EDGE_CURVE('',#642,#641,#289,.T.);
#778=EDGE_CURVE('',#640,#642,#290,.T.);
#779=EDGE_CURVE('',#643,#639,#291,.T.);
#780=EDGE_CURVE('',#643,#644,#292,.T.);
#781=EDGE_CURVE('',#641,#644,#293,.T.);
#782=EDGE_CURVE('',#645,#643,#294,.T.);
#783=EDGE_CURVE('',#645,#646,#295,.T.);
#784=EDGE_CURVE('',#644,#646,#296,.T.);
#785=EDGE_CURVE('',#640,#645,#297,.T.);
#786=EDGE_CURVE('',#646,#642,#298,.T.);
#787=EDGE_CURVE('',#647,#648,#299,.T.);
#788=EDGE_CURVE('',#647,#649,#300,.T.);
#789=EDGE_CURVE('',#650,#649,#301,.T.);
#790=EDGE_CURVE('',#648,#650,#302,.T.);
#791=EDGE_CURVE('',#651,#647,#303,.T.);
#792=EDGE_CURVE('',#651,#652,#304,.T.);
#793=EDGE_CURVE('',#649,#652,#305,.T.);
#794=EDGE_CURVE('',#653,#651,#306,.T.);
#795=EDGE_CURVE('',#653,#654,#307,.T.);
#796=EDGE_CURVE('',#652,#654,#308,.T.);
#797=EDGE_CURVE('',#648,#653,#309,.T.);
#798=EDGE_CURVE('',#654,#650,#310,.T.);
#799=EDGE_CURVE('',#655,#656,#311,.T.);
#800=EDGE_CURVE('',#655,#657,#312,.T.);
#801=EDGE_CURVE('',#658,#657,#313,.T.);
#802=EDGE_CURVE('',#656,#658,#314,.T.);
#803=EDGE_CURVE('',#659,#655,#315,.T.);
#804=EDGE_CURVE('',#659,#660,#316,.T.);
#805=EDGE_CURVE('',#657,#660,#317,.T.);
#806=EDGE_CURVE('',#661,#659,#318,.T.);
#807=EDGE_CURVE('',#661,#662,#319,.T.);
#808=EDGE_CURVE('',#660,#662,#320,.T.);
#809=EDGE_CURVE('',#656,#661,#321,.T.);
#810=EDGE_CURVE('',#662,#658,#322,.T.);
#811=EDGE_CURVE('',#663,#664,#323,.T.);
#812=EDGE_CURVE('',#663,#665,#324,.T.);
#813=EDGE_CURVE('',#666,#665,#325,.T.);
#814=EDGE_CURVE('',#664,#666,#326,.T.);
#815=EDGE_CURVE('',#667,#663,#327,.T.);
#816=EDGE_CURVE('',#667,#668,#328,.T.);
#817=EDGE_CURVE('',#665,#668,#329,.T.);
#818=EDGE_CURVE('',#669,#667,#330,.T.);
#819=EDGE_CURVE('',#669,#670,#331,.T.);
#820=EDGE_CURVE('',#668,#670,#332,.T.);
#821=EDGE_CURVE('',#664,#669,#333,.T.);
#822=EDGE_CURVE('',#670,#666,#334,.T.);
#823=EDGE_CURVE('',#671,#672,#335,.T.);
#824=EDGE_CURVE('',#671,#673,#336,.T.);
#825=EDGE_CURVE('',#674,#673,#337,.T.);
#826=EDGE_CURVE('',#672,#674,#338,.T.);
#827=EDGE_CURVE('',#675,#671,#339,.T.);
#828=EDGE_CURVE('',#675,#676,#340,.T.);
#829=EDGE_CURVE('',#673,#676,#341,.T.);
#830=EDGE_CURVE('',#677,#675,#342,.T.);
#831=EDGE_CURVE('',#677,#678,#343,.T.);
#832=EDGE_CURVE('',#676,#678,#344,.T.);
#833=EDGE_CURVE('',#672,#677,#345,.T.);
#834=EDGE_CURVE('',#678,#674,#346,.T.);
#835=EDGE_CURVE('',#679,#680,#347,.T.);
#836=EDGE_CURVE('',#681,#679,#348,.T.);
#837=EDGE_CURVE('',#682,#681,#349,.T.);
#838=EDGE_CURVE('',#680,#682,#350,.T.);
#839=EDGE_CURVE('',#683,#683,#27,.T.);
#840=EDGE_CURVE('',#684,#684,#28,.T.);
#841=EDGE_CURVE('',#684,#685,#351,.T.);
#842=EDGE_CURVE('',#685,#685,#29,.T.);
#843=EDGE_CURVE('',#686,#686,#30,.T.);
#844=EDGE_CURVE('',#686,#687,#352,.T.);
#845=EDGE_CURVE('',#687,#687,#31,.T.);
#846=EDGE_CURVE('',#688,#688,#32,.T.);
#847=EDGE_CURVE('',#688,#689,#353,.T.);
#848=EDGE_CURVE('',#689,#689,#33,.T.);
#849=EDGE_CURVE('',#690,#690,#34,.T.);
#850=EDGE_CURVE('',#690,#691,#354,.T.);
#851=EDGE_CURVE('',#691,#691,#35,.T.);
#852=EDGE_CURVE('',#692,#693,#355,.T.);
#853=EDGE_CURVE('',#693,#694,#356,.T.);
#854=EDGE_CURVE('',#694,#695,#357,.T.);
#855=EDGE_CURVE('',#695,#692,#358,.T.);
#856=EDGE_CURVE('',#696,#697,#359,.T.);
#857=EDGE_CURVE('',#697,#692,#360,.T.);
#858=EDGE_CURVE('',#696,#695,#361,.T.);
#859=EDGE_CURVE('',#698,#696,#362,.T.);
#860=EDGE_CURVE('',#698,#694,#363,.T.);
#861=EDGE_CURVE('',#699,#698,#364,.T.);
#862=EDGE_CURVE('',#699,#693,#365,.T.);
#863=EDGE_CURVE('',#697,#699,#366,.T.);
#864=EDGE_CURVE('',#700,#701,#367,.T.);
#865=EDGE_CURVE('',#700,#679,#368,.T.);
#866=EDGE_CURVE('',#701,#680,#369,.T.);
#867=EDGE_CURVE('',#702,#700,#370,.T.);
#868=EDGE_CURVE('',#702,#681,#371,.T.);
#869=EDGE_CURVE('',#703,#702,#372,.T.);
#870=EDGE_CURVE('',#703,#682,#373,.T.);
#871=EDGE_CURVE('',#701,#703,#374,.T.);
#872=EDGE_CURVE('',#704,#704,#36,.T.);
#873=EDGE_CURVE('',#704,#683,#375,.T.);
#874=EDGE_CURVE('',#705,#705,#37,.T.);
#875=EDGE_CURVE('',#705,#706,#376,.T.);
#876=EDGE_CURVE('',#706,#706,#38,.T.);
#877=EDGE_CURVE('',#707,#708,#377,.T.);
#878=EDGE_CURVE('',#709,#707,#378,.T.);
#879=EDGE_CURVE('',#710,#709,#379,.T.);
#880=EDGE_CURVE('',#710,#708,#380,.T.);
#881=EDGE_CURVE('',#708,#711,#381,.T.);
#882=EDGE_CURVE('',#712,#710,#382,.T.);
#883=EDGE_CURVE('',#712,#711,#383,.T.);
#884=EDGE_CURVE('',#711,#713,#384,.T.);
#885=EDGE_CURVE('',#714,#712,#385,.T.);
#886=EDGE_CURVE('',#714,#713,#386,.T.);
#887=EDGE_CURVE('',#713,#707,#387,.T.);
#888=EDGE_CURVE('',#709,#714,#388,.T.);
#889=EDGE_CURVE('',#715,#715,#39,.T.);
#890=EDGE_CURVE('',#715,#716,#389,.T.);
#891=EDGE_CURVE('',#716,#716,#40,.T.);
#892=EDGE_CURVE('',#717,#717,#41,.T.);
#893=EDGE_CURVE('',#717,#718,#390,.T.);
#894=EDGE_CURVE('',#718,#718,#42,.T.);
#895=EDGE_CURVE('',#719,#719,#43,.T.);
#896=EDGE_CURVE('',#719,#720,#391,.T.);
#897=EDGE_CURVE('',#720,#720,#44,.T.);
#898=EDGE_CURVE('',#721,#721,#45,.T.);
#899=EDGE_CURVE('',#721,#722,#392,.T.);
#900=EDGE_CURVE('',#722,#722,#46,.T.);
#901=EDGE_CURVE('',#723,#724,#393,.T.);
#902=EDGE_CURVE('',#725,#723,#394,.T.);
#903=EDGE_CURVE('',#726,#725,#395,.T.);
#904=EDGE_CURVE('',#726,#724,#396,.T.);
#905=EDGE_CURVE('',#724,#727,#397,.T.);
#906=EDGE_CURVE('',#728,#726,#398,.T.);
#907=EDGE_CURVE('',#728,#727,#399,.T.);
#908=EDGE_CURVE('',#727,#729,#400,.T.);
#909=EDGE_CURVE('',#730,#728,#401,.T.);
#910=EDGE_CURVE('',#730,#729,#402,.T.);
#911=EDGE_CURVE('',#729,#723,#403,.T.);
#912=EDGE_CURVE('',#725,#730,#404,.T.);
#913=EDGE_CURVE('',#731,#732,#405,.T.);
#914=EDGE_CURVE('',#733,#731,#406,.T.);
#915=EDGE_CURVE('',#734,#733,#407,.T.);
#916=EDGE_CURVE('',#734,#732,#408,.T.);
#917=EDGE_CURVE('',#732,#735,#409,.T.);
#918=EDGE_CURVE('',#736,#734,#410,.T.);
#919=EDGE_CURVE('',#736,#735,#411,.T.);
#920=EDGE_CURVE('',#735,#737,#412,.T.);
#921=EDGE_CURVE('',#738,#736,#413,.T.);
#922=EDGE_CURVE('',#738,#737,#414,.T.);
#923=EDGE_CURVE('',#737,#731,#415,.T.);
#924=EDGE_CURVE('',#733,#738,#416,.T.);
#925=EDGE_CURVE('',#739,#740,#417,.T.);
#926=EDGE_CURVE('',#741,#739,#418,.T.);
#927=EDGE_CURVE('',#742,#741,#419,.T.);
#928=EDGE_CURVE('',#742,#740,#420,.T.);
#929=EDGE_CURVE('',#740,#743,#421,.T.);
#930=EDGE_CURVE('',#744,#742,#422,.T.);
#931=EDGE_CURVE('',#744,#743,#423,.T.);
#932=EDGE_CURVE('',#743,#745,#424,.T.);
#933=EDGE_CURVE('',#746,#744,#425,.T.);
#934=EDGE_CURVE('',#746,#745,#426,.T.);
#935=EDGE_CURVE('',#745,#739,#427,.T.);
#936=EDGE_CURVE('',#741,#746,#428,.T.);
#937=EDGE_CURVE('',#747,#748,#429,.T.);
#938=EDGE_CURVE('',#749,#747,#430,.T.);
#939=EDGE_CURVE('',#750,#749,#431,.T.);
#940=EDGE_CURVE('',#750,#748,#432,.T.);
#941=EDGE_CURVE('',#748,#751,#433,.T.);
#942=EDGE_CURVE('',#752,#750,#434,.T.);
#943=EDGE_CURVE('',#752,#751,#435,.T.);
#944=EDGE_CURVE('',#751,#753,#436,.T.);
#945=EDGE_CURVE('',#754,#752,#437,.T.);
#946=EDGE_CURVE('',#754,#753,#438,.T.);
#947=EDGE_CURVE('',#753,#747,#439,.T.);
#948=EDGE_CURVE('',#749,#754,#440,.T.);
#949=EDGE_CURVE('',#755,#756,#441,.T.);
#950=EDGE_CURVE('',#756,#757,#442,.T.);
#951=EDGE_CURVE('',#758,#757,#443,.T.);
#952=EDGE_CURVE('',#755,#758,#444,.T.);
#953=EDGE_CURVE('',#759,#755,#445,.T.);
#954=EDGE_CURVE('',#760,#758,#446,.T.);
#955=EDGE_CURVE('',#759,#760,#447,.T.);
#956=EDGE_CURVE('',#761,#759,#448,.T.);
#957=EDGE_CURVE('',#762,#760,#449,.T.);
#958=EDGE_CURVE('',#761,#762,#450,.T.);
#959=EDGE_CURVE('',#756,#761,#451,.T.);
#960=EDGE_CURVE('',#757,#762,#452,.T.);
#961=ORIENTED_EDGE('',*,*,#763,.F.);
#962=ORIENTED_EDGE('',*,*,#764,.F.);
#963=ORIENTED_EDGE('',*,*,#765,.T.);
#964=ORIENTED_EDGE('',*,*,#766,.F.);
#965=ORIENTED_EDGE('',*,*,#767,.F.);
#966=ORIENTED_EDGE('',*,*,#768,.F.);
#967=ORIENTED_EDGE('',*,*,#769,.T.);
#968=ORIENTED_EDGE('',*,*,#770,.F.);
#969=ORIENTED_EDGE('',*,*,#769,.F.);
#970=ORIENTED_EDGE('',*,*,#771,.F.);
#971=ORIENTED_EDGE('',*,*,#765,.F.);
#972=ORIENTED_EDGE('',*,*,#772,.F.);
#973=ORIENTED_EDGE('',*,*,#767,.T.);
#974=ORIENTED_EDGE('',*,*,#773,.F.);
#975=ORIENTED_EDGE('',*,*,#763,.T.);
#976=ORIENTED_EDGE('',*,*,#774,.F.);
#977=ORIENTED_EDGE('',*,*,#775,.F.);
#978=ORIENTED_EDGE('',*,*,#776,.T.);
#979=ORIENTED_EDGE('',*,*,#777,.F.);
#980=ORIENTED_EDGE('',*,*,#778,.F.);
#981=ORIENTED_EDGE('',*,*,#779,.F.);
#982=ORIENTED_EDGE('',*,*,#780,.T.);
#983=ORIENTED_EDGE('',*,*,#781,.F.);
#984=ORIENTED_EDGE('',*,*,#776,.F.);
#985=ORIENTED_EDGE('',*,*,#782,.F.);
#986=ORIENTED_EDGE('',*,*,#783,.T.);
#987=ORIENTED_EDGE('',*,*,#784,.F.);
#988=ORIENTED_EDGE('',*,*,#780,.F.);
#989=ORIENTED_EDGE('',*,*,#785,.F.);
#990=ORIENTED_EDGE('',*,*,#778,.T.);
#991=ORIENTED_EDGE('',*,*,#786,.F.);
#992=ORIENTED_EDGE('',*,*,#783,.F.);
#993=ORIENTED_EDGE('',*,*,#785,.T.);
#994=ORIENTED_EDGE('',*,*,#782,.T.);
#995=ORIENTED_EDGE('',*,*,#779,.T.);
#996=ORIENTED_EDGE('',*,*,#775,.T.);
#997=ORIENTED_EDGE('',*,*,#787,.F.);
#998=ORIENTED_EDGE('',*,*,#788,.T.);
#999=ORIENTED_EDGE('',*,*,#789,.F.);
#1000=ORIENTED_EDGE('',*,*,#790,.F.);
#1001=ORIENTED_EDGE('',*,*,#791,.F.);
#1002=ORIENTED_EDGE('',*,*,#792,.T.);
#1003=ORIENTED_EDGE('',*,*,#793,.F.);
#1004=ORIENTED_EDGE('',*,*,#788,.F.);
#1005=ORIENTED_EDGE('',*,*,#794,.F.);
#1006=ORIENTED_EDGE('',*,*,#795,.T.);
#1007=ORIENTED_EDGE('',*,*,#796,.F.);
#1008=ORIENTED_EDGE('',*,*,#792,.F.);
#1009=ORIENTED_EDGE('',*,*,#797,.F.);
#1010=ORIENTED_EDGE('',*,*,#790,.T.);
#1011=ORIENTED_EDGE('',*,*,#798,.F.);
#1012=ORIENTED_EDGE('',*,*,#795,.F.);
#1013=ORIENTED_EDGE('',*,*,#797,.T.);
#1014=ORIENTED_EDGE('',*,*,#794,.T.);
#1015=ORIENTED_EDGE('',*,*,#791,.T.);
#1016=ORIENTED_EDGE('',*,*,#787,.T.);
#1017=ORIENTED_EDGE('',*,*,#799,.F.);
#1018=ORIENTED_EDGE('',*,*,#800,.T.);
#1019=ORIENTED_EDGE('',*,*,#801,.F.);
#1020=ORIENTED_EDGE('',*,*,#802,.F.);
#1021=ORIENTED_EDGE('',*,*,#803,.F.);
#1022=ORIENTED_EDGE('',*,*,#804,.T.);
#1023=ORIENTED_EDGE('',*,*,#805,.F.);
#1024=ORIENTED_EDGE('',*,*,#800,.F.);
#1025=ORIENTED_EDGE('',*,*,#806,.F.);
#1026=ORIENTED_EDGE('',*,*,#807,.T.);
#1027=ORIENTED_EDGE('',*,*,#808,.F.);
#1028=ORIENTED_EDGE('',*,*,#804,.F.);
#1029=ORIENTED_EDGE('',*,*,#809,.F.);
#1030=ORIENTED_EDGE('',*,*,#802,.T.);
#1031=ORIENTED_EDGE('',*,*,#810,.F.);
#1032=ORIENTED_EDGE('',*,*,#807,.F.);
#1033=ORIENTED_EDGE('',*,*,#809,.T.);
#1034=ORIENTED_EDGE('',*,*,#806,.T.);
#1035=ORIENTED_EDGE('',*,*,#803,.T.);
#1036=ORIENTED_EDGE('',*,*,#799,.T.);
#1037=ORIENTED_EDGE('',*,*,#811,.F.);
#1038=ORIENTED_EDGE('',*,*,#812,.T.);
#1039=ORIENTED_EDGE('',*,*,#813,.F.);
#1040=ORIENTED_EDGE('',*,*,#814,.F.);
#1041=ORIENTED_EDGE('',*,*,#815,.F.);
#1042=ORIENTED_EDGE('',*,*,#816,.T.);
#1043=ORIENTED_EDGE('',*,*,#817,.F.);
#1044=ORIENTED_EDGE('',*,*,#812,.F.);
#1045=ORIENTED_EDGE('',*,*,#818,.F.);
#1046=ORIENTED_EDGE('',*,*,#819,.T.);
#1047=ORIENTED_EDGE('',*,*,#820,.F.);
#1048=ORIENTED_EDGE('',*,*,#816,.F.);
#1049=ORIENTED_EDGE('',*,*,#821,.F.);
#1050=ORIENTED_EDGE('',*,*,#814,.T.);
#1051=ORIENTED_EDGE('',*,*,#822,.F.);
#1052=ORIENTED_EDGE('',*,*,#819,.F.);
#1053=ORIENTED_EDGE('',*,*,#821,.T.);
#1054=ORIENTED_EDGE('',*,*,#818,.T.);
#1055=ORIENTED_EDGE('',*,*,#815,.T.);
#1056=ORIENTED_EDGE('',*,*,#811,.T.);
#1057=ORIENTED_EDGE('',*,*,#823,.F.);
#1058=ORIENTED_EDGE('',*,*,#824,.T.);
#1059=ORIENTED_EDGE('',*,*,#825,.F.);
#1060=ORIENTED_EDGE('',*,*,#826,.F.);
#1061=ORIENTED_EDGE('',*,*,#770,.T.);
#1062=ORIENTED_EDGE('',*,*,#772,.T.);
#1063=ORIENTED_EDGE('',*,*,#764,.T.);
#1064=ORIENTED_EDGE('',*,*,#773,.T.);
#1065=ORIENTED_EDGE('',*,*,#827,.F.);
#1066=ORIENTED_EDGE('',*,*,#828,.T.);
#1067=ORIENTED_EDGE('',*,*,#829,.F.);
#1068=ORIENTED_EDGE('',*,*,#824,.F.);
#1069=ORIENTED_EDGE('',*,*,#830,.F.);
#1070=ORIENTED_EDGE('',*,*,#831,.T.);
#1071=ORIENTED_EDGE('',*,*,#832,.F.);
#1072=ORIENTED_EDGE('',*,*,#828,.F.);
#1073=ORIENTED_EDGE('',*,*,#833,.F.);
#1074=ORIENTED_EDGE('',*,*,#826,.T.);
#1075=ORIENTED_EDGE('',*,*,#834,.F.);
#1076=ORIENTED_EDGE('',*,*,#831,.F.);
#1077=ORIENTED_EDGE('',*,*,#833,.T.);
#1078=ORIENTED_EDGE('',*,*,#830,.T.);
#1079=ORIENTED_EDGE('',*,*,#827,.T.);
#1080=ORIENTED_EDGE('',*,*,#823,.T.);
#1081=ORIENTED_EDGE('',*,*,#835,.F.);
#1082=ORIENTED_EDGE('',*,*,#836,.F.);
#1083=ORIENTED_EDGE('',*,*,#837,.F.);
#1084=ORIENTED_EDGE('',*,*,#838,.F.);
#1085=ORIENTED_EDGE('',*,*,#839,.F.);
#1086=ORIENTED_EDGE('',*,*,#813,.T.);
#1087=ORIENTED_EDGE('',*,*,#817,.T.);
#1088=ORIENTED_EDGE('',*,*,#820,.T.);
#1089=ORIENTED_EDGE('',*,*,#822,.T.);
#1090=ORIENTED_EDGE('',*,*,#801,.T.);
#1091=ORIENTED_EDGE('',*,*,#805,.T.);
#1092=ORIENTED_EDGE('',*,*,#808,.T.);
#1093=ORIENTED_EDGE('',*,*,#810,.T.);
#1094=ORIENTED_EDGE('',*,*,#789,.T.);
#1095=ORIENTED_EDGE('',*,*,#793,.T.);
#1096=ORIENTED_EDGE('',*,*,#796,.T.);
#1097=ORIENTED_EDGE('',*,*,#798,.T.);
#1098=ORIENTED_EDGE('',*,*,#777,.T.);
#1099=ORIENTED_EDGE('',*,*,#781,.T.);
#1100=ORIENTED_EDGE('',*,*,#784,.T.);
#1101=ORIENTED_EDGE('',*,*,#786,.T.);
#1102=ORIENTED_EDGE('',*,*,#840,.F.);
#1103=ORIENTED_EDGE('',*,*,#841,.T.);
#1104=ORIENTED_EDGE('',*,*,#842,.F.);
#1105=ORIENTED_EDGE('',*,*,#841,.F.);
#1106=ORIENTED_EDGE('',*,*,#843,.F.);
#1107=ORIENTED_EDGE('',*,*,#844,.T.);
#1108=ORIENTED_EDGE('',*,*,#845,.F.);
#1109=ORIENTED_EDGE('',*,*,#844,.F.);
#1110=ORIENTED_EDGE('',*,*,#846,.F.);
#1111=ORIENTED_EDGE('',*,*,#847,.T.);
#1112=ORIENTED_EDGE('',*,*,#848,.F.);
#1113=ORIENTED_EDGE('',*,*,#847,.F.);
#1114=ORIENTED_EDGE('',*,*,#849,.F.);
#1115=ORIENTED_EDGE('',*,*,#850,.T.);
#1116=ORIENTED_EDGE('',*,*,#851,.F.);
#1117=ORIENTED_EDGE('',*,*,#850,.F.);
#1118=ORIENTED_EDGE('',*,*,#852,.T.);
#1119=ORIENTED_EDGE('',*,*,#853,.T.);
#1120=ORIENTED_EDGE('',*,*,#854,.T.);
#1121=ORIENTED_EDGE('',*,*,#855,.T.);
#1122=ORIENTED_EDGE('',*,*,#825,.T.);
#1123=ORIENTED_EDGE('',*,*,#829,.T.);
#1124=ORIENTED_EDGE('',*,*,#832,.T.);
#1125=ORIENTED_EDGE('',*,*,#834,.T.);
#1126=ORIENTED_EDGE('',*,*,#849,.T.);
#1127=ORIENTED_EDGE('',*,*,#846,.T.);
#1128=ORIENTED_EDGE('',*,*,#843,.T.);
#1129=ORIENTED_EDGE('',*,*,#840,.T.);
#1130=ORIENTED_EDGE('',*,*,#851,.T.);
#1131=ORIENTED_EDGE('',*,*,#848,.T.);
#1132=ORIENTED_EDGE('',*,*,#845,.T.);
#1133=ORIENTED_EDGE('',*,*,#856,.T.);
#1134=ORIENTED_EDGE('',*,*,#857,.T.);
#1135=ORIENTED_EDGE('',*,*,#855,.F.);
#1136=ORIENTED_EDGE('',*,*,#858,.F.);
#1137=ORIENTED_EDGE('',*,*,#768,.T.);
#1138=ORIENTED_EDGE('',*,*,#774,.T.);
#1139=ORIENTED_EDGE('',*,*,#766,.T.);
#1140=ORIENTED_EDGE('',*,*,#771,.T.);
#1141=ORIENTED_EDGE('',*,*,#859,.T.);
#1142=ORIENTED_EDGE('',*,*,#858,.T.);
#1143=ORIENTED_EDGE('',*,*,#854,.F.);
#1144=ORIENTED_EDGE('',*,*,#860,.F.);
#1145=ORIENTED_EDGE('',*,*,#861,.T.);
#1146=ORIENTED_EDGE('',*,*,#860,.T.);
#1147=ORIENTED_EDGE('',*,*,#853,.F.);
#1148=ORIENTED_EDGE('',*,*,#862,.F.);
#1149=ORIENTED_EDGE('',*,*,#863,.T.);
#1150=ORIENTED_EDGE('',*,*,#862,.T.);
#1151=ORIENTED_EDGE('',*,*,#852,.F.);
#1152=ORIENTED_EDGE('',*,*,#857,.F.);
#1153=ORIENTED_EDGE('',*,*,#842,.T.);
#1154=ORIENTED_EDGE('',*,*,#863,.F.);
#1155=ORIENTED_EDGE('',*,*,#856,.F.);
#1156=ORIENTED_EDGE('',*,*,#859,.F.);
#1157=ORIENTED_EDGE('',*,*,#861,.F.);
#1158=ORIENTED_EDGE('',*,*,#864,.F.);
#1159=ORIENTED_EDGE('',*,*,#865,.T.);
#1160=ORIENTED_EDGE('',*,*,#835,.T.);
#1161=ORIENTED_EDGE('',*,*,#866,.F.);
#1162=ORIENTED_EDGE('',*,*,#867,.F.);
#1163=ORIENTED_EDGE('',*,*,#868,.T.);
#1164=ORIENTED_EDGE('',*,*,#836,.T.);
#1165=ORIENTED_EDGE('',*,*,#865,.F.);
#1166=ORIENTED_EDGE('',*,*,#869,.F.);
#1167=ORIENTED_EDGE('',*,*,#870,.T.);
#1168=ORIENTED_EDGE('',*,*,#837,.T.);
#1169=ORIENTED_EDGE('',*,*,#868,.F.);
#1170=ORIENTED_EDGE('',*,*,#871,.F.);
#1171=ORIENTED_EDGE('',*,*,#866,.T.);
#1172=ORIENTED_EDGE('',*,*,#838,.T.);
#1173=ORIENTED_EDGE('',*,*,#870,.F.);
#1174=ORIENTED_EDGE('',*,*,#871,.T.);
#1175=ORIENTED_EDGE('',*,*,#869,.T.);
#1176=ORIENTED_EDGE('',*,*,#867,.T.);
#1177=ORIENTED_EDGE('',*,*,#864,.T.);
#1178=ORIENTED_EDGE('',*,*,#872,.F.);
#1179=ORIENTED_EDGE('',*,*,#873,.T.);
#1180=ORIENTED_EDGE('',*,*,#839,.T.);
#1181=ORIENTED_EDGE('',*,*,#873,.F.);
#1182=ORIENTED_EDGE('',*,*,#872,.T.);
#1183=ORIENTED_EDGE('',*,*,#874,.F.);
#1184=ORIENTED_EDGE('',*,*,#875,.T.);
#1185=ORIENTED_EDGE('',*,*,#876,.F.);
#1186=ORIENTED_EDGE('',*,*,#875,.F.);
#1187=ORIENTED_EDGE('',*,*,#877,.F.);
#1188=ORIENTED_EDGE('',*,*,#878,.F.);
#1189=ORIENTED_EDGE('',*,*,#879,.F.);
#1190=ORIENTED_EDGE('',*,*,#880,.T.);
#1191=ORIENTED_EDGE('',*,*,#881,.F.);
#1192=ORIENTED_EDGE('',*,*,#880,.F.);
#1193=ORIENTED_EDGE('',*,*,#882,.F.);
#1194=ORIENTED_EDGE('',*,*,#883,.T.);
#1195=ORIENTED_EDGE('',*,*,#884,.F.);
#1196=ORIENTED_EDGE('',*,*,#883,.F.);
#1197=ORIENTED_EDGE('',*,*,#885,.F.);
#1198=ORIENTED_EDGE('',*,*,#886,.T.);
#1199=ORIENTED_EDGE('',*,*,#887,.F.);
#1200=ORIENTED_EDGE('',*,*,#886,.F.);
#1201=ORIENTED_EDGE('',*,*,#888,.F.);
#1202=ORIENTED_EDGE('',*,*,#878,.T.);
#1203=ORIENTED_EDGE('',*,*,#889,.F.);
#1204=ORIENTED_EDGE('',*,*,#890,.T.);
#1205=ORIENTED_EDGE('',*,*,#891,.F.);
#1206=ORIENTED_EDGE('',*,*,#890,.F.);
#1207=ORIENTED_EDGE('',*,*,#892,.F.);
#1208=ORIENTED_EDGE('',*,*,#893,.T.);
#1209=ORIENTED_EDGE('',*,*,#894,.F.);
#1210=ORIENTED_EDGE('',*,*,#893,.F.);
#1211=ORIENTED_EDGE('',*,*,#895,.F.);
#1212=ORIENTED_EDGE('',*,*,#896,.T.);
#1213=ORIENTED_EDGE('',*,*,#897,.F.);
#1214=ORIENTED_EDGE('',*,*,#896,.F.);
#1215=ORIENTED_EDGE('',*,*,#898,.F.);
#1216=ORIENTED_EDGE('',*,*,#899,.T.);
#1217=ORIENTED_EDGE('',*,*,#900,.F.);
#1218=ORIENTED_EDGE('',*,*,#899,.F.);
#1219=ORIENTED_EDGE('',*,*,#901,.F.);
#1220=ORIENTED_EDGE('',*,*,#902,.F.);
#1221=ORIENTED_EDGE('',*,*,#903,.F.);
#1222=ORIENTED_EDGE('',*,*,#904,.T.);
#1223=ORIENTED_EDGE('',*,*,#905,.F.);
#1224=ORIENTED_EDGE('',*,*,#904,.F.);
#1225=ORIENTED_EDGE('',*,*,#906,.F.);
#1226=ORIENTED_EDGE('',*,*,#907,.T.);
#1227=ORIENTED_EDGE('',*,*,#908,.F.);
#1228=ORIENTED_EDGE('',*,*,#907,.F.);
#1229=ORIENTED_EDGE('',*,*,#909,.F.);
#1230=ORIENTED_EDGE('',*,*,#910,.T.);
#1231=ORIENTED_EDGE('',*,*,#911,.F.);
#1232=ORIENTED_EDGE('',*,*,#910,.F.);
#1233=ORIENTED_EDGE('',*,*,#912,.F.);
#1234=ORIENTED_EDGE('',*,*,#902,.T.);
#1235=ORIENTED_EDGE('',*,*,#913,.F.);
#1236=ORIENTED_EDGE('',*,*,#914,.F.);
#1237=ORIENTED_EDGE('',*,*,#915,.F.);
#1238=ORIENTED_EDGE('',*,*,#916,.T.);
#1239=ORIENTED_EDGE('',*,*,#917,.F.);
#1240=ORIENTED_EDGE('',*,*,#916,.F.);
#1241=ORIENTED_EDGE('',*,*,#918,.F.);
#1242=ORIENTED_EDGE('',*,*,#919,.T.);
#1243=ORIENTED_EDGE('',*,*,#920,.F.);
#1244=ORIENTED_EDGE('',*,*,#919,.F.);
#1245=ORIENTED_EDGE('',*,*,#921,.F.);
#1246=ORIENTED_EDGE('',*,*,#922,.T.);
#1247=ORIENTED_EDGE('',*,*,#923,.F.);
#1248=ORIENTED_EDGE('',*,*,#922,.F.);
#1249=ORIENTED_EDGE('',*,*,#924,.F.);
#1250=ORIENTED_EDGE('',*,*,#914,.T.);
#1251=ORIENTED_EDGE('',*,*,#925,.F.);
#1252=ORIENTED_EDGE('',*,*,#926,.F.);
#1253=ORIENTED_EDGE('',*,*,#927,.F.);
#1254=ORIENTED_EDGE('',*,*,#928,.T.);
#1255=ORIENTED_EDGE('',*,*,#929,.F.);
#1256=ORIENTED_EDGE('',*,*,#928,.F.);
#1257=ORIENTED_EDGE('',*,*,#930,.F.);
#1258=ORIENTED_EDGE('',*,*,#931,.T.);
#1259=ORIENTED_EDGE('',*,*,#932,.F.);
#1260=ORIENTED_EDGE('',*,*,#931,.F.);
#1261=ORIENTED_EDGE('',*,*,#933,.F.);
#1262=ORIENTED_EDGE('',*,*,#934,.T.);
#1263=ORIENTED_EDGE('',*,*,#935,.F.);
#1264=ORIENTED_EDGE('',*,*,#934,.F.);
#1265=ORIENTED_EDGE('',*,*,#936,.F.);
#1266=ORIENTED_EDGE('',*,*,#926,.T.);
#1267=ORIENTED_EDGE('',*,*,#937,.F.);
#1268=ORIENTED_EDGE('',*,*,#938,.F.);
#1269=ORIENTED_EDGE('',*,*,#939,.F.);
#1270=ORIENTED_EDGE('',*,*,#940,.T.);
#1271=ORIENTED_EDGE('',*,*,#941,.F.);
#1272=ORIENTED_EDGE('',*,*,#940,.F.);
#1273=ORIENTED_EDGE('',*,*,#942,.F.);
#1274=ORIENTED_EDGE('',*,*,#943,.T.);
#1275=ORIENTED_EDGE('',*,*,#944,.F.);
#1276=ORIENTED_EDGE('',*,*,#943,.F.);
#1277=ORIENTED_EDGE('',*,*,#945,.F.);
#1278=ORIENTED_EDGE('',*,*,#946,.T.);
#1279=ORIENTED_EDGE('',*,*,#947,.F.);
#1280=ORIENTED_EDGE('',*,*,#946,.F.);
#1281=ORIENTED_EDGE('',*,*,#948,.F.);
#1282=ORIENTED_EDGE('',*,*,#938,.T.);
#1283=ORIENTED_EDGE('',*,*,#949,.T.);
#1284=ORIENTED_EDGE('',*,*,#950,.T.);
#1285=ORIENTED_EDGE('',*,*,#951,.F.);
#1286=ORIENTED_EDGE('',*,*,#952,.F.);
#1287=ORIENTED_EDGE('',*,*,#953,.T.);
#1288=ORIENTED_EDGE('',*,*,#952,.T.);
#1289=ORIENTED_EDGE('',*,*,#954,.F.);
#1290=ORIENTED_EDGE('',*,*,#955,.F.);
#1291=ORIENTED_EDGE('',*,*,#956,.T.);
#1292=ORIENTED_EDGE('',*,*,#955,.T.);
#1293=ORIENTED_EDGE('',*,*,#957,.F.);
#1294=ORIENTED_EDGE('',*,*,#958,.F.);
#1295=ORIENTED_EDGE('',*,*,#959,.T.);
#1296=ORIENTED_EDGE('',*,*,#958,.T.);
#1297=ORIENTED_EDGE('',*,*,#960,.F.);
#1298=ORIENTED_EDGE('',*,*,#950,.F.);
#1299=ORIENTED_EDGE('',*,*,#960,.T.);
#1300=ORIENTED_EDGE('',*,*,#957,.T.);
#1301=ORIENTED_EDGE('',*,*,#954,.T.);
#1302=ORIENTED_EDGE('',*,*,#951,.T.);
#1303=ORIENTED_EDGE('',*,*,#937,.T.);
#1304=ORIENTED_EDGE('',*,*,#941,.T.);
#1305=ORIENTED_EDGE('',*,*,#944,.T.);
#1306=ORIENTED_EDGE('',*,*,#947,.T.);
#1307=ORIENTED_EDGE('',*,*,#925,.T.);
#1308=ORIENTED_EDGE('',*,*,#929,.T.);
#1309=ORIENTED_EDGE('',*,*,#932,.T.);
#1310=ORIENTED_EDGE('',*,*,#935,.T.);
#1311=ORIENTED_EDGE('',*,*,#913,.T.);
#1312=ORIENTED_EDGE('',*,*,#917,.T.);
#1313=ORIENTED_EDGE('',*,*,#920,.T.);
#1314=ORIENTED_EDGE('',*,*,#923,.T.);
#1315=ORIENTED_EDGE('',*,*,#901,.T.);
#1316=ORIENTED_EDGE('',*,*,#905,.T.);
#1317=ORIENTED_EDGE('',*,*,#908,.T.);
#1318=ORIENTED_EDGE('',*,*,#911,.T.);
#1319=ORIENTED_EDGE('',*,*,#900,.T.);
#1320=ORIENTED_EDGE('',*,*,#897,.T.);
#1321=ORIENTED_EDGE('',*,*,#894,.T.);
#1322=ORIENTED_EDGE('',*,*,#891,.T.);
#1323=ORIENTED_EDGE('',*,*,#877,.T.);
#1324=ORIENTED_EDGE('',*,*,#881,.T.);
#1325=ORIENTED_EDGE('',*,*,#884,.T.);
#1326=ORIENTED_EDGE('',*,*,#887,.T.);
#1327=ORIENTED_EDGE('',*,*,#876,.T.);
#1328=ORIENTED_EDGE('',*,*,#959,.F.);
#1329=ORIENTED_EDGE('',*,*,#949,.F.);
#1330=ORIENTED_EDGE('',*,*,#953,.F.);
#1331=ORIENTED_EDGE('',*,*,#956,.F.);
#1332=ORIENTED_EDGE('',*,*,#939,.T.);
#1333=ORIENTED_EDGE('',*,*,#948,.T.);
#1334=ORIENTED_EDGE('',*,*,#945,.T.);
#1335=ORIENTED_EDGE('',*,*,#942,.T.);
#1336=ORIENTED_EDGE('',*,*,#927,.T.);
#1337=ORIENTED_EDGE('',*,*,#936,.T.);
#1338=ORIENTED_EDGE('',*,*,#933,.T.);
#1339=ORIENTED_EDGE('',*,*,#930,.T.);
#1340=ORIENTED_EDGE('',*,*,#915,.T.);
#1341=ORIENTED_EDGE('',*,*,#924,.T.);
#1342=ORIENTED_EDGE('',*,*,#921,.T.);
#1343=ORIENTED_EDGE('',*,*,#918,.T.);
#1344=ORIENTED_EDGE('',*,*,#903,.T.);
#1345=ORIENTED_EDGE('',*,*,#912,.T.);
#1346=ORIENTED_EDGE('',*,*,#909,.T.);
#1347=ORIENTED_EDGE('',*,*,#906,.T.);
#1348=ORIENTED_EDGE('',*,*,#898,.T.);
#1349=ORIENTED_EDGE('',*,*,#895,.T.);
#1350=ORIENTED_EDGE('',*,*,#892,.T.);
#1351=ORIENTED_EDGE('',*,*,#889,.T.);
#1352=ORIENTED_EDGE('',*,*,#879,.T.);
#1353=ORIENTED_EDGE('',*,*,#888,.T.);
#1354=ORIENTED_EDGE('',*,*,#885,.T.);
#1355=ORIENTED_EDGE('',*,*,#882,.T.);
#1356=ORIENTED_EDGE('',*,*,#874,.T.);
#1357=PLANE('',#1524);
#1358=PLANE('',#1525);
#1359=PLANE('',#1526);
#1360=PLANE('',#1527);
#1361=PLANE('',#1528);
#1362=PLANE('',#1529);
#1363=PLANE('',#1530);
#1364=PLANE('',#1531);
#1365=PLANE('',#1532);
#1366=PLANE('',#1533);
#1367=PLANE('',#1534);
#1368=PLANE('',#1535);
#1369=PLANE('',#1536);
#1370=PLANE('',#1537);
#1371=PLANE('',#1538);
#1372=PLANE('',#1539);
#1373=PLANE('',#1540);
#1374=PLANE('',#1541);
#1375=PLANE('',#1542);
#1376=PLANE('',#1543);
#1377=PLANE('',#1544);
#1378=PLANE('',#1545);
#1379=PLANE('',#1546);
#1380=PLANE('',#1547);
#1381=PLANE('',#1548);
#1382=PLANE('',#1549);
#1383=PLANE('',#1550);
#1384=PLANE('',#1551);
#1385=PLANE('',#1552);
#1386=PLANE('',#1566);
#1387=PLANE('',#1567);
#1388=PLANE('',#1568);
#1389=PLANE('',#1569);
#1390=PLANE('',#1570);
#1391=PLANE('',#1571);
#1392=PLANE('',#1572);
#1393=PLANE('',#1573);
#1394=PLANE('',#1574);
#1395=PLANE('',#1575);
#1396=PLANE('',#1576);
#1397=PLANE('',#1577);
#1398=PLANE('',#1578);
#1399=PLANE('',#1579);
#1400=PLANE('',#1580);
#1401=PLANE('',#1583);
#1402=PLANE('',#1587);
#1403=PLANE('',#1588);
#1404=PLANE('',#1589);
#1405=PLANE('',#1590);
#1406=PLANE('',#1603);
#1407=PLANE('',#1604);
#1408=PLANE('',#1605);
#1409=PLANE('',#1606);
#1410=PLANE('',#1607);
#1411=PLANE('',#1608);
#1412=PLANE('',#1609);
#1413=PLANE('',#1610);
#1414=PLANE('',#1611);
#1415=PLANE('',#1612);
#1416=PLANE('',#1613);
#1417=PLANE('',#1614);
#1418=PLANE('',#1615);
#1419=PLANE('',#1616);
#1420=PLANE('',#1617);
#1421=PLANE('',#1618);
#1422=PLANE('',#1619);
#1423=PLANE('',#1620);
#1424=PLANE('',#1621);
#1425=PLANE('',#1622);
#1426=PLANE('',#1623);
#1427=PLANE('',#1624);
#1428=ADVANCED_FACE('',(#80),#1357,.F.);
#1429=ADVANCED_FACE('',(#81),#1358,.F.);
#1430=ADVANCED_FACE('',(#82),#1359,.F.);
#1431=ADVANCED_FACE('',(#83),#1360,.T.);
#1432=ADVANCED_FACE('',(#84),#1361,.F.);
#1433=ADVANCED_FACE('',(#85),#1362,.F.);
#1434=ADVANCED_FACE('',(#86),#1363,.F.);
#1435=ADVANCED_FACE('',(#87),#1364,.F.);
#1436=ADVANCED_FACE('',(#88),#1365,.T.);
#1437=ADVANCED_FACE('',(#89),#1366,.F.);
#1438=ADVANCED_FACE('',(#90),#1367,.F.);
#1439=ADVANCED_FACE('',(#91),#1368,.F.);
#1440=ADVANCED_FACE('',(#92),#1369,.F.);
#1441=ADVANCED_FACE('',(#93),#1370,.T.);
#1442=ADVANCED_FACE('',(#94),#1371,.F.);
#1443=ADVANCED_FACE('',(#95),#1372,.F.);
#1444=ADVANCED_FACE('',(#96),#1373,.F.);
#1445=ADVANCED_FACE('',(#97),#1374,.F.);
#1446=ADVANCED_FACE('',(#98),#1375,.T.);
#1447=ADVANCED_FACE('',(#99),#1376,.F.);
#1448=ADVANCED_FACE('',(#100),#1377,.F.);
#1449=ADVANCED_FACE('',(#101),#1378,.F.);
#1450=ADVANCED_FACE('',(#102),#1379,.F.);
#1451=ADVANCED_FACE('',(#103),#1380,.T.);
#1452=ADVANCED_FACE('',(#104,#47),#1381,.F.);
#1453=ADVANCED_FACE('',(#105),#1382,.F.);
#1454=ADVANCED_FACE('',(#106),#1383,.F.);
#1455=ADVANCED_FACE('',(#107),#1384,.F.);
#1456=ADVANCED_FACE('',(#108,#48,#49,#50,#51,#52,#53),#1385,.T.);
#1457=ADVANCED_FACE('',(#109),#17,.F.);
#1458=ADVANCED_FACE('',(#110),#18,.F.);
#1459=ADVANCED_FACE('',(#111),#19,.F.);
#1460=ADVANCED_FACE('',(#112),#20,.F.);
#1461=ADVANCED_FACE('',(#113,#54,#55,#56,#57,#58),#1386,.T.);
#1462=ADVANCED_FACE('',(#114),#1387,.T.);
#1463=ADVANCED_FACE('',(#115),#1388,.T.);
#1464=ADVANCED_FACE('',(#116),#1389,.T.);
#1465=ADVANCED_FACE('',(#117,#59),#1390,.T.);
#1466=ADVANCED_FACE('',(#118),#1391,.T.);
#1467=ADVANCED_FACE('',(#119),#1392,.T.);
#1468=ADVANCED_FACE('',(#120),#1393,.T.);
#1469=ADVANCED_FACE('',(#121),#1394,.T.);
#1470=ADVANCED_FACE('',(#122),#1395,.F.);
#1471=ADVANCED_FACE('',(#123),#1396,.F.);
#1472=ADVANCED_FACE('',(#124),#1397,.F.);
#1473=ADVANCED_FACE('',(#125),#1398,.F.);
#1474=ADVANCED_FACE('',(#126),#1399,.F.);
#1475=ADVANCED_FACE('',(#127),#1400,.T.);
#1476=ADVANCED_FACE('',(#128),#21,.F.);
#1477=ADVANCED_FACE('',(#129),#1401,.T.);
#1478=ADVANCED_FACE('',(#130),#22,.F.);
#1479=ADVANCED_FACE('',(#131),#1402,.F.);
#1480=ADVANCED_FACE('',(#132),#1403,.F.);
#1481=ADVANCED_FACE('',(#133),#1404,.F.);
#1482=ADVANCED_FACE('',(#134),#1405,.F.);
#1483=ADVANCED_FACE('',(#135),#23,.F.);
#1484=ADVANCED_FACE('',(#136),#24,.F.);
#1485=ADVANCED_FACE('',(#137),#25,.F.);
#1486=ADVANCED_FACE('',(#138),#26,.F.);
#1487=ADVANCED_FACE('',(#139),#1406,.F.);
#1488=ADVANCED_FACE('',(#140),#1407,.F.);
#1489=ADVANCED_FACE('',(#141),#1408,.F.);
#1490=ADVANCED_FACE('',(#142),#1409,.F.);
#1491=ADVANCED_FACE('',(#143),#1410,.F.);
#1492=ADVANCED_FACE('',(#144),#1411,.F.);
#1493=ADVANCED_FACE('',(#145),#1412,.F.);
#1494=ADVANCED_FACE('',(#146),#1413,.F.);
#1495=ADVANCED_FACE('',(#147),#1414,.F.);
#1496=ADVANCED_FACE('',(#148),#1415,.F.);
#1497=ADVANCED_FACE('',(#149),#1416,.F.);
#1498=ADVANCED_FACE('',(#150),#1417,.F.);
#1499=ADVANCED_FACE('',(#151),#1418,.F.);
#1500=ADVANCED_FACE('',(#152),#1419,.F.);
#1501=ADVANCED_FACE('',(#153),#1420,.F.);
#1502=ADVANCED_FACE('',(#154),#1421,.F.);
#1503=ADVANCED_FACE('',(#155),#1422,.T.);
#1504=ADVANCED_FACE('',(#156),#1423,.T.);
#1505=ADVANCED_FACE('',(#157),#1424,.T.);
#1506=ADVANCED_FACE('',(#158),#1425,.T.);
#1507=ADVANCED_FACE('',(#159,#60,#61,#62,#63,#64,#65,#66,#67,#68,#69),#1426,
 .T.);
#1508=ADVANCED_FACE('',(#160,#70,#71,#72,#73,#74,#75,#76,#77,#78,#79),#1427,
 .F.);
#1509=CLOSED_SHELL('',(#1428,#1429,#1430,#1431,#1432,#1433,#1434,#1435,
#1436,#1437,#1438,#1439,#1440,#1441,#1442,#1443,#1444,#1445,#1446,#1447,
#1448,#1449,#1450,#1451,#1452,#1453,#1454,#1455,#1456,#1457,#1458,#1459,
#1460,#1461,#1462,#1463,#1464,#1465,#1466,#1467,#1468,#1469,#1470,#1471,
#1472,#1473,#1474,#1475,#1476,#1477));
#1510=CLOSED_SHELL('',(#1478,#1479,#1480,#1481,#1482,#1483,#1484,#1485,
#1486,#1487,#1488,#1489,#1490,#1491,#1492,#1493,#1494,#1495,#1496,#1497,
#1498,#1499,#1500,#1501,#1502,#1503,#1504,#1505,#1506,#1507,#1508));
#1511=DERIVED_UNIT_ELEMENT(#1513,1.);
#1512=DERIVED_UNIT_ELEMENT(#2424,-3.);
#1513=(
MASS_UNIT()
NAMED_UNIT(*)
SI_UNIT(.KILO.,.GRAM.)
);
#1514=DERIVED_UNIT((#1511,#1512));
#1515=MEASURE_REPRESENTATION_ITEM('density measure',
POSITIVE_RATIO_MEASURE(7850.),#1514);
#1516=PROPERTY_DEFINITION_REPRESENTATION(#1521,#1518);
#1517=PROPERTY_DEFINITION_REPRESENTATION(#1522,#1519);
#1518=REPRESENTATION('material name',(#1520),#2421);
#1519=REPRESENTATION('density',(#1515),#2421);
#1520=DESCRIPTIVE_REPRESENTATION_ITEM('Steel','Steel');
#1521=PROPERTY_DEFINITION('material property','material name',#2431);
#1522=PROPERTY_DEFINITION('material property','density of part',#2431);
#1523=AXIS2_PLACEMENT_3D('',#2007,#1625,#1626);
#1524=AXIS2_PLACEMENT_3D('',#2008,#1627,#1628);
#1525=AXIS2_PLACEMENT_3D('',#2017,#1633,#1634);
#1526=AXIS2_PLACEMENT_3D('',#2026,#1639,#1640);
#1527=AXIS2_PLACEMENT_3D('',#2029,#1643,#1644);
#1528=AXIS2_PLACEMENT_3D('',#2032,#1647,#1648);
#1529=AXIS2_PLACEMENT_3D('',#2041,#1653,#1654);
#1530=AXIS2_PLACEMENT_3D('',#2047,#1658,#1659);
#1531=AXIS2_PLACEMENT_3D('',#2053,#1663,#1664);
#1532=AXIS2_PLACEMENT_3D('',#2056,#1667,#1668);
#1533=AXIS2_PLACEMENT_3D('',#2057,#1669,#1670);
#1534=AXIS2_PLACEMENT_3D('',#2066,#1675,#1676);
#1535=AXIS2_PLACEMENT_3D('',#2072,#1680,#1681);
#1536=AXIS2_PLACEMENT_3D('',#2078,#1685,#1686);
#1537=AXIS2_PLACEMENT_3D('',#2081,#1689,#1690);
#1538=AXIS2_PLACEMENT_3D('',#2082,#1691,#1692);
#1539=AXIS2_PLACEMENT_3D('',#2091,#1697,#1698);
#1540=AXIS2_PLACEMENT_3D('',#2097,#1702,#1703);
#1541=AXIS2_PLACEMENT_3D('',#2103,#1707,#1708);
#1542=AXIS2_PLACEMENT_3D('',#2106,#1711,#1712);
#1543=AXIS2_PLACEMENT_3D('',#2107,#1713,#1714);
#1544=AXIS2_PLACEMENT_3D('',#2116,#1719,#1720);
#1545=AXIS2_PLACEMENT_3D('',#2122,#1724,#1725);
#1546=AXIS2_PLACEMENT_3D('',#2128,#1729,#1730);
#1547=AXIS2_PLACEMENT_3D('',#2131,#1733,#1734);
#1548=AXIS2_PLACEMENT_3D('',#2132,#1735,#1736);
#1549=AXIS2_PLACEMENT_3D('',#2141,#1741,#1742);
#1550=AXIS2_PLACEMENT_3D('',#2147,#1746,#1747);
#1551=AXIS2_PLACEMENT_3D('',#2153,#1751,#1752);
#1552=AXIS2_PLACEMENT_3D('',#2156,#1755,#1756);
#1553=AXIS2_PLACEMENT_3D('',#2166,#1761,#1762);
#1554=AXIS2_PLACEMENT_3D('',#2167,#1763,#1764);
#1555=AXIS2_PLACEMENT_3D('',#2169,#1765,#1766);
#1556=AXIS2_PLACEMENT_3D('',#2172,#1768,#1769);
#1557=AXIS2_PLACEMENT_3D('',#2173,#1770,#1771);
#1558=AXIS2_PLACEMENT_3D('',#2175,#1772,#1773);
#1559=AXIS2_PLACEMENT_3D('',#2178,#1775,#1776);
#1560=AXIS2_PLACEMENT_3D('',#2179,#1777,#1778);
#1561=AXIS2_PLACEMENT_3D('',#2181,#1779,#1780);
#1562=AXIS2_PLACEMENT_3D('',#2184,#1782,#1783);
#1563=AXIS2_PLACEMENT_3D('',#2185,#1784,#1785);
#1564=AXIS2_PLACEMENT_3D('',#2187,#1786,#1787);
#1565=AXIS2_PLACEMENT_3D('',#2190,#1789,#1790);
#1566=AXIS2_PLACEMENT_3D('',#2191,#1791,#1792);
#1567=AXIS2_PLACEMENT_3D('',#2200,#1797,#1798);
#1568=AXIS2_PLACEMENT_3D('',#2201,#1799,#1800);
#1569=AXIS2_PLACEMENT_3D('',#2202,#1801,#1802);
#1570=AXIS2_PLACEMENT_3D('',#2203,#1803,#1804);
#1571=AXIS2_PLACEMENT_3D('',#2209,#1808,#1809);
#1572=AXIS2_PLACEMENT_3D('',#2213,#1812,#1813);
#1573=AXIS2_PLACEMENT_3D('',#2217,#1816,#1817);
#1574=AXIS2_PLACEMENT_3D('',#2219,#1819,#1820);
#1575=AXIS2_PLACEMENT_3D('',#2220,#1821,#1822);
#1576=AXIS2_PLACEMENT_3D('',#2221,#1823,#1824);
#1577=AXIS2_PLACEMENT_3D('',#2227,#1828,#1829);
#1578=AXIS2_PLACEMENT_3D('',#2231,#1832,#1833);
#1579=AXIS2_PLACEMENT_3D('',#2235,#1836,#1837);
#1580=AXIS2_PLACEMENT_3D('',#2237,#1839,#1840);
#1581=AXIS2_PLACEMENT_3D('',#2238,#1841,#1842);
#1582=AXIS2_PLACEMENT_3D('',#2240,#1843,#1844);
#1583=AXIS2_PLACEMENT_3D('',#2242,#1846,#1847);
#1584=AXIS2_PLACEMENT_3D('',#2243,#1848,#1849);
#1585=AXIS2_PLACEMENT_3D('',#2245,#1850,#1851);
#1586=AXIS2_PLACEMENT_3D('',#2248,#1853,#1854);
#1587=AXIS2_PLACEMENT_3D('',#2249,#1855,#1856);
#1588=AXIS2_PLACEMENT_3D('',#2258,#1861,#1862);
#1589=AXIS2_PLACEMENT_3D('',#2264,#1866,#1867);
#1590=AXIS2_PLACEMENT_3D('',#2270,#1871,#1872);
#1591=AXIS2_PLACEMENT_3D('',#2273,#1875,#1876);
#1592=AXIS2_PLACEMENT_3D('',#2275,#1877,#1878);
#1593=AXIS2_PLACEMENT_3D('',#2278,#1880,#1881);
#1594=AXIS2_PLACEMENT_3D('',#2279,#1882,#1883);
#1595=AXIS2_PLACEMENT_3D('',#2281,#1884,#1885);
#1596=AXIS2_PLACEMENT_3D('',#2284,#1887,#1888);
#1597=AXIS2_PLACEMENT_3D('',#2285,#1889,#1890);
#1598=AXIS2_PLACEMENT_3D('',#2287,#1891,#1892);
#1599=AXIS2_PLACEMENT_3D('',#2290,#1894,#1895);
#1600=AXIS2_PLACEMENT_3D('',#2291,#1896,#1897);
#1601=AXIS2_PLACEMENT_3D('',#2293,#1898,#1899);
#1602=AXIS2_PLACEMENT_3D('',#2296,#1901,#1902);
#1603=AXIS2_PLACEMENT_3D('',#2297,#1903,#1904);
#1604=AXIS2_PLACEMENT_3D('',#2306,#1909,#1910);
#1605=AXIS2_PLACEMENT_3D('',#2312,#1914,#1915);
#1606=AXIS2_PLACEMENT_3D('',#2318,#1919,#1920);
#1607=AXIS2_PLACEMENT_3D('',#2321,#1923,#1924);
#1608=AXIS2_PLACEMENT_3D('',#2330,#1929,#1930);
#1609=AXIS2_PLACEMENT_3D('',#2336,#1934,#1935);
#1610=AXIS2_PLACEMENT_3D('',#2342,#1939,#1940);
#1611=AXIS2_PLACEMENT_3D('',#2345,#1943,#1944);
#1612=AXIS2_PLACEMENT_3D('',#2354,#1949,#1950);
#1613=AXIS2_PLACEMENT_3D('',#2360,#1954,#1955);
#1614=AXIS2_PLACEMENT_3D('',#2366,#1959,#1960);
#1615=AXIS2_PLACEMENT_3D('',#2369,#1963,#1964);
#1616=AXIS2_PLACEMENT_3D('',#2378,#1969,#1970);
#1617=AXIS2_PLACEMENT_3D('',#2384,#1974,#1975);
#1618=AXIS2_PLACEMENT_3D('',#2390,#1979,#1980);
#1619=AXIS2_PLACEMENT_3D('',#2393,#1983,#1984);
#1620=AXIS2_PLACEMENT_3D('',#2402,#1989,#1990);
#1621=AXIS2_PLACEMENT_3D('',#2408,#1994,#1995);
#1622=AXIS2_PLACEMENT_3D('',#2414,#1999,#2000);
#1623=AXIS2_PLACEMENT_3D('',#2417,#2003,#2004);
#1624=AXIS2_PLACEMENT_3D('',#2418,#2005,#2006);
#1625=DIRECTION('axis',(0.,0.,1.));
#1626=DIRECTION('refdir',(1.,0.,0.));
#1627=DIRECTION('center_axis',(1.,0.,0.));
#1628=DIRECTION('ref_axis',(0.,1.,0.));
#1629=DIRECTION('',(0.,1.,0.));
#1630=DIRECTION('',(0.,0.,-1.));
#1631=DIRECTION('',(0.,1.,0.));
#1632=DIRECTION('',(0.,0.,1.));
#1633=DIRECTION('center_axis',(-1.,0.,0.));
#1634=DIRECTION('ref_axis',(0.,-1.,0.));
#1635=DIRECTION('',(0.,-1.,0.));
#1636=DIRECTION('',(0.,0.,-1.));
#1637=DIRECTION('',(0.,-1.,0.));
#1638=DIRECTION('',(0.,0.,1.));
#1639=DIRECTION('center_axis',(0.,0.,1.));
#1640=DIRECTION('ref_axis',(1.,0.,0.));
#1641=DIRECTION('',(-1.,0.,0.));
#1642=DIRECTION('',(1.,0.,0.));
#1643=DIRECTION('center_axis',(0.,0.,1.));
#1644=DIRECTION('ref_axis',(1.,0.,0.));
#1645=DIRECTION('',(-1.,0.,0.));
#1646=DIRECTION('',(1.,0.,0.));
#1647=DIRECTION('center_axis',(0.,1.,0.));
#1648=DIRECTION('ref_axis',(-1.,0.,0.));
#1649=DIRECTION('',(-1.,0.,0.));
#1650=DIRECTION('',(0.,0.,1.));
#1651=DIRECTION('',(1.,0.,0.));
#1652=DIRECTION('',(0.,0.,1.));
#1653=DIRECTION('center_axis',(1.,0.,0.));
#1654=DIRECTION('ref_axis',(0.,1.,0.));
#1655=DIRECTION('',(0.,1.,0.));
#1656=DIRECTION('',(0.,0.,1.));
#1657=DIRECTION('',(0.,-1.,0.));
#1658=DIRECTION('center_axis',(0.,-1.,0.));
#1659=DIRECTION('ref_axis',(1.,0.,0.));
#1660=DIRECTION('',(1.,0.,0.));
#1661=DIRECTION('',(0.,0.,1.));
#1662=DIRECTION('',(-1.,0.,0.));
#1663=DIRECTION('center_axis',(-1.,0.,0.));
#1664=DIRECTION('ref_axis',(0.,-1.,0.));
#1665=DIRECTION('',(0.,-1.,0.));
#1666=DIRECTION('',(0.,1.,0.));
#1667=DIRECTION('center_axis',(0.,0.,1.));
#1668=DIRECTION('ref_axis',(1.,0.,0.));
#1669=DIRECTION('center_axis',(0.,1.,0.));
#1670=DIRECTION('ref_axis',(-1.,0.,0.));
#1671=DIRECTION('',(-1.,0.,0.));
#1672=DIRECTION('',(0.,0.,1.));
#1673=DIRECTION('',(1.,0.,0.));
#1674=DIRECTION('',(0.,0.,1.));
#1675=DIRECTION('center_axis',(1.,0.,0.));
#1676=DIRECTION('ref_axis',(0.,1.,0.));
#1677=DIRECTION('',(0.,1.,0.));
#1678=DIRECTION('',(0.,0.,1.));
#1679=DIRECTION('',(0.,-1.,0.));
#1680=DIRECTION('center_axis',(0.,-1.,0.));
#1681=DIRECTION('ref_axis',(1.,0.,0.));
#1682=DIRECTION('',(1.,0.,0.));
#1683=DIRECTION('',(0.,0.,1.));
#1684=DIRECTION('',(-1.,0.,0.));
#1685=DIRECTION('center_axis',(-1.,0.,0.));
#1686=DIRECTION('ref_axis',(0.,-1.,0.));
#1687=DIRECTION('',(0.,-1.,0.));
#1688=DIRECTION('',(0.,1.,0.));
#1689=DIRECTION('center_axis',(0.,0.,1.));
#1690=DIRECTION('ref_axis',(1.,0.,0.));
#1691=DIRECTION('center_axis',(0.,1.,0.));
#1692=DIRECTION('ref_axis',(-1.,0.,0.));
#1693=DIRECTION('',(-1.,0.,0.));
#1694=DIRECTION('',(0.,0.,1.));
#1695=DIRECTION('',(1.,0.,0.));
#1696=DIRECTION('',(0.,0.,1.));
#1697=DIRECTION('center_axis',(1.,0.,0.));
#1698=DIRECTION('ref_axis',(0.,1.,0.));
#1699=DIRECTION('',(0.,1.,0.));
#1700=DIRECTION('',(0.,0.,1.));
#1701=DIRECTION('',(0.,-1.,0.));
#1702=DIRECTION('center_axis',(0.,-1.,0.));
#1703=DIRECTION('ref_axis',(1.,0.,0.));
#1704=DIRECTION('',(1.,0.,0.));
#1705=DIRECTION('',(0.,0.,1.));
#1706=DIRECTION('',(-1.,0.,0.));
#1707=DIRECTION('center_axis',(-1.,0.,0.));
#1708=DIRECTION('ref_axis',(0.,-1.,0.));
#1709=DIRECTION('',(0.,-1.,0.));
#1710=DIRECTION('',(0.,1.,0.));
#1711=DIRECTION('center_axis',(0.,0.,1.));
#1712=DIRECTION('ref_axis',(1.,0.,0.));
#1713=DIRECTION('center_axis',(0.,1.,0.));
#1714=DIRECTION('ref_axis',(-1.,0.,0.));
#1715=DIRECTION('',(-1.,0.,0.));
#1716=DIRECTION('',(0.,0.,1.));
#1717=DIRECTION('',(1.,0.,0.));
#1718=DIRECTION('',(0.,0.,1.));
#1719=DIRECTION('center_axis',(1.,0.,0.));
#1720=DIRECTION('ref_axis',(0.,1.,0.));
#1721=DIRECTION('',(0.,1.,0.));
#1722=DIRECTION('',(0.,0.,1.));
#1723=DIRECTION('',(0.,-1.,0.));
#1724=DIRECTION('center_axis',(0.,-1.,0.));
#1725=DIRECTION('ref_axis',(1.,0.,0.));
#1726=DIRECTION('',(1.,0.,0.));
#1727=DIRECTION('',(0.,0.,1.));
#1728=DIRECTION('',(-1.,0.,0.));
#1729=DIRECTION('center_axis',(-1.,0.,0.));
#1730=DIRECTION('ref_axis',(0.,-1.,0.));
#1731=DIRECTION('',(0.,-1.,0.));
#1732=DIRECTION('',(0.,1.,0.));
#1733=DIRECTION('center_axis',(0.,0.,1.));
#1734=DIRECTION('ref_axis',(1.,0.,0.));
#1735=DIRECTION('center_axis',(0.,1.,0.));
#1736=DIRECTION('ref_axis',(-1.,0.,0.));
#1737=DIRECTION('',(-1.,0.,0.));
#1738=DIRECTION('',(0.,0.,1.));
#1739=DIRECTION('',(1.,0.,0.));
#1740=DIRECTION('',(0.,0.,1.));
#1741=DIRECTION('center_axis',(1.,0.,0.));
#1742=DIRECTION('ref_axis',(0.,1.,0.));
#1743=DIRECTION('',(0.,1.,0.));
#1744=DIRECTION('',(0.,0.,1.));
#1745=DIRECTION('',(0.,-1.,0.));
#1746=DIRECTION('center_axis',(0.,-1.,0.));
#1747=DIRECTION('ref_axis',(1.,0.,0.));
#1748=DIRECTION('',(1.,0.,0.));
#1749=DIRECTION('',(0.,0.,1.));
#1750=DIRECTION('',(-1.,0.,0.));
#1751=DIRECTION('center_axis',(-1.,0.,0.));
#1752=DIRECTION('ref_axis',(0.,-1.,0.));
#1753=DIRECTION('',(0.,-1.,0.));
#1754=DIRECTION('',(0.,1.,0.));
#1755=DIRECTION('center_axis',(0.,0.,1.));
#1756=DIRECTION('ref_axis',(1.,0.,0.));
#1757=DIRECTION('',(-1.,0.,0.));
#1758=DIRECTION('',(0.,1.,0.));
#1759=DIRECTION('',(1.,0.,0.));
#1760=DIRECTION('',(0.,-1.,0.));
#1761=DIRECTION('center_axis',(0.,0.,1.));
#1762=DIRECTION('ref_axis',(1.,0.,0.));
#1763=DIRECTION('center_axis',(0.,0.,1.));
#1764=DIRECTION('ref_axis',(1.,0.,0.));
#1765=DIRECTION('center_axis',(0.,0.,-1.));
#1766=DIRECTION('ref_axis',(1.,0.,0.));
#1767=DIRECTION('',(0.,0.,-1.));
#1768=DIRECTION('center_axis',(0.,0.,1.));
#1769=DIRECTION('ref_axis',(1.,0.,0.));
#1770=DIRECTION('center_axis',(0.,0.,1.));
#1771=DIRECTION('ref_axis',(1.,0.,0.));
#1772=DIRECTION('center_axis',(0.,0.,-1.));
#1773=DIRECTION('ref_axis',(1.,0.,0.));
#1774=DIRECTION('',(0.,0.,-1.));
#1775=DIRECTION('center_axis',(0.,0.,1.));
#1776=DIRECTION('ref_axis',(1.,0.,0.));
#1777=DIRECTION('center_axis',(0.,0.,1.));
#1778=DIRECTION('ref_axis',(1.,0.,0.));
#1779=DIRECTION('center_axis',(0.,0.,-1.));
#1780=DIRECTION('ref_axis',(1.,0.,0.));
#1781=DIRECTION('',(0.,0.,-1.));
#1782=DIRECTION('center_axis',(0.,0.,1.));
#1783=DIRECTION('ref_axis',(1.,0.,0.));
#1784=DIRECTION('center_axis',(0.,0.,1.));
#1785=DIRECTION('ref_axis',(1.,0.,0.));
#1786=DIRECTION('center_axis',(0.,0.,-1.));
#1787=DIRECTION('ref_axis',(1.,0.,0.));
#1788=DIRECTION('',(0.,0.,-1.));
#1789=DIRECTION('center_axis',(0.,0.,1.));
#1790=DIRECTION('ref_axis',(1.,0.,0.));
#1791=DIRECTION('center_axis',(0.,0.,1.));
#1792=DIRECTION('ref_axis',(1.,0.,0.));
#1793=DIRECTION('',(0.,-1.,0.));
#1794=DIRECTION('',(1.,0.,0.));
#1795=DIRECTION('',(0.,1.,0.));
#1796=DIRECTION('',(-1.,0.,0.));
#1797=DIRECTION('center_axis',(0.,0.,1.));
#1798=DIRECTION('ref_axis',(1.,0.,0.));
#1799=DIRECTION('center_axis',(0.,0.,1.));
#1800=DIRECTION('ref_axis',(1.,0.,0.));
#1801=DIRECTION('center_axis',(0.,0.,1.));
#1802=DIRECTION('ref_axis',(1.,0.,0.));
#1803=DIRECTION('center_axis',(0.,1.,0.));
#1804=DIRECTION('ref_axis',(-1.,0.,0.));
#1805=DIRECTION('',(-1.,0.,0.));
#1806=DIRECTION('',(0.,0.,1.));
#1807=DIRECTION('',(0.,0.,1.));
#1808=DIRECTION('center_axis',(1.,0.,0.));
#1809=DIRECTION('ref_axis',(0.,1.,0.));
#1810=DIRECTION('',(0.,1.,0.));
#1811=DIRECTION('',(0.,0.,1.));
#1812=DIRECTION('center_axis',(0.,-1.,0.));
#1813=DIRECTION('ref_axis',(1.,0.,0.));
#1814=DIRECTION('',(1.,0.,0.));
#1815=DIRECTION('',(0.,0.,1.));
#1816=DIRECTION('center_axis',(-1.,0.,0.));
#1817=DIRECTION('ref_axis',(0.,-1.,0.));
#1818=DIRECTION('',(0.,-1.,0.));
#1819=DIRECTION('center_axis',(0.,0.,1.));
#1820=DIRECTION('ref_axis',(1.,0.,0.));
#1821=DIRECTION('center_axis',(0.,0.,1.));
#1822=DIRECTION('ref_axis',(1.,0.,0.));
#1823=DIRECTION('center_axis',(0.,1.,0.));
#1824=DIRECTION('ref_axis',(-1.,0.,0.));
#1825=DIRECTION('',(-1.,0.,0.));
#1826=DIRECTION('',(0.,0.,1.));
#1827=DIRECTION('',(0.,0.,1.));
#1828=DIRECTION('center_axis',(1.,0.,0.));
#1829=DIRECTION('ref_axis',(0.,1.,0.));
#1830=DIRECTION('',(0.,1.,0.));
#1831=DIRECTION('',(0.,0.,1.));
#1832=DIRECTION('center_axis',(0.,-1.,0.));
#1833=DIRECTION('ref_axis',(1.,0.,0.));
#1834=DIRECTION('',(1.,0.,0.));
#1835=DIRECTION('',(0.,0.,1.));
#1836=DIRECTION('center_axis',(-1.,0.,0.));
#1837=DIRECTION('ref_axis',(0.,-1.,0.));
#1838=DIRECTION('',(0.,-1.,0.));
#1839=DIRECTION('center_axis',(0.,0.,1.));
#1840=DIRECTION('ref_axis',(1.,0.,0.));
#1841=DIRECTION('center_axis',(0.,0.,1.));
#1842=DIRECTION('ref_axis',(1.,0.,0.));
#1843=DIRECTION('center_axis',(0.,0.,1.));
#1844=DIRECTION('ref_axis',(1.,0.,0.));
#1845=DIRECTION('',(0.,0.,1.));
#1846=DIRECTION('center_axis',(0.,0.,1.));
#1847=DIRECTION('ref_axis',(1.,0.,0.));
#1848=DIRECTION('center_axis',(0.,0.,1.));
#1849=DIRECTION('ref_axis',(1.,0.,0.));
#1850=DIRECTION('center_axis',(0.,0.,1.));
#1851=DIRECTION('ref_axis',(1.,0.,0.));
#1852=DIRECTION('',(0.,0.,1.));
#1853=DIRECTION('center_axis',(0.,0.,-1.));
#1854=DIRECTION('ref_axis',(1.,0.,0.));
#1855=DIRECTION('center_axis',(0.,-1.,0.));
#1856=DIRECTION('ref_axis',(1.,0.,0.));
#1857=DIRECTION('',(-1.,0.,0.));
#1858=DIRECTION('',(0.,0.,1.));
#1859=DIRECTION('',(1.,0.,0.));
#1860=DIRECTION('',(0.,0.,1.));
#1861=DIRECTION('center_axis',(-1.,0.,0.));
#1862=DIRECTION('ref_axis',(0.,-1.,0.));
#1863=DIRECTION('',(0.,1.,0.));
#1864=DIRECTION('',(0.,-1.,0.));
#1865=DIRECTION('',(0.,0.,1.));
#1866=DIRECTION('center_axis',(0.,1.,0.));
#1867=DIRECTION('ref_axis',(-1.,0.,0.));
#1868=DIRECTION('',(1.,0.,0.));
#1869=DIRECTION('',(-1.,0.,0.));
#1870=DIRECTION('',(0.,0.,1.));
#1871=DIRECTION('center_axis',(1.,0.,0.));
#1872=DIRECTION('ref_axis',(0.,1.,0.));
#1873=DIRECTION('',(0.,-1.,0.));
#1874=DIRECTION('',(0.,1.,0.));
#1875=DIRECTION('center_axis',(0.,0.,1.));
#1876=DIRECTION('ref_axis',(1.,0.,0.));
#1877=DIRECTION('center_axis',(0.,0.,1.));
#1878=DIRECTION('ref_axis',(1.,0.,0.));
#1879=DIRECTION('',(0.,0.,1.));
#1880=DIRECTION('center_axis',(0.,0.,-1.));
#1881=DIRECTION('ref_axis',(1.,0.,0.));
#1882=DIRECTION('center_axis',(0.,0.,1.));
#1883=DIRECTION('ref_axis',(1.,0.,0.));
#1884=DIRECTION('center_axis',(0.,0.,1.));
#1885=DIRECTION('ref_axis',(1.,0.,0.));
#1886=DIRECTION('',(0.,0.,1.));
#1887=DIRECTION('center_axis',(0.,0.,-1.));
#1888=DIRECTION('ref_axis',(1.,0.,0.));
#1889=DIRECTION('center_axis',(0.,0.,1.));
#1890=DIRECTION('ref_axis',(1.,0.,0.));
#1891=DIRECTION('center_axis',(0.,0.,1.));
#1892=DIRECTION('ref_axis',(1.,0.,0.));
#1893=DIRECTION('',(0.,0.,1.));
#1894=DIRECTION('center_axis',(0.,0.,-1.));
#1895=DIRECTION('ref_axis',(1.,0.,0.));
#1896=DIRECTION('center_axis',(0.,0.,1.));
#1897=DIRECTION('ref_axis',(1.,0.,0.));
#1898=DIRECTION('center_axis',(0.,0.,1.));
#1899=DIRECTION('ref_axis',(1.,0.,0.));
#1900=DIRECTION('',(0.,0.,1.));
#1901=DIRECTION('center_axis',(0.,0.,-1.));
#1902=DIRECTION('ref_axis',(1.,0.,0.));
#1903=DIRECTION('center_axis',(0.,-1.,0.));
#1904=DIRECTION('ref_axis',(1.,0.,0.));
#1905=DIRECTION('',(-1.,0.,0.));
#1906=DIRECTION('',(0.,0.,1.));
#1907=DIRECTION('',(1.,0.,0.));
#1908=DIRECTION('',(0.,0.,1.));
#1909=DIRECTION('center_axis',(-1.,0.,0.));
#1910=DIRECTION('ref_axis',(0.,-1.,0.));
#1911=DIRECTION('',(0.,1.,0.));
#1912=DIRECTION('',(0.,-1.,0.));
#1913=DIRECTION('',(0.,0.,1.));
#1914=DIRECTION('center_axis',(0.,1.,0.));
#1915=DIRECTION('ref_axis',(-1.,0.,0.));
#1916=DIRECTION('',(1.,0.,0.));
#1917=DIRECTION('',(-1.,0.,0.));
#1918=DIRECTION('',(0.,0.,1.));
#1919=DIRECTION('center_axis',(1.,0.,0.));
#1920=DIRECTION('ref_axis',(0.,1.,0.));
#1921=DIRECTION('',(0.,-1.,0.));
#1922=DIRECTION('',(0.,1.,0.));
#1923=DIRECTION('center_axis',(0.,-1.,0.));
#1924=DIRECTION('ref_axis',(1.,0.,0.));
#1925=DIRECTION('',(-1.,0.,0.));
#1926=DIRECTION('',(0.,0.,1.));
#1927=DIRECTION('',(1.,0.,0.));
#1928=DIRECTION('',(0.,0.,1.));
#1929=DIRECTION('center_axis',(-1.,0.,0.));
#1930=DIRECTION('ref_axis',(0.,-1.,0.));
#1931=DIRECTION('',(0.,1.,0.));
#1932=DIRECTION('',(0.,-1.,0.));
#1933=DIRECTION('',(0.,0.,1.));
#1934=DIRECTION('center_axis',(0.,1.,0.));
#1935=DIRECTION('ref_axis',(-1.,0.,0.));
#1936=DIRECTION('',(1.,0.,0.));
#1937=DIRECTION('',(-1.,0.,0.));
#1938=DIRECTION('',(0.,0.,1.));
#1939=DIRECTION('center_axis',(1.,0.,0.));
#1940=DIRECTION('ref_axis',(0.,1.,0.));
#1941=DIRECTION('',(0.,-1.,0.));
#1942=DIRECTION('',(0.,1.,0.));
#1943=DIRECTION('center_axis',(0.,-1.,0.));
#1944=DIRECTION('ref_axis',(1.,0.,0.));
#1945=DIRECTION('',(-1.,0.,0.));
#1946=DIRECTION('',(0.,0.,1.));
#1947=DIRECTION('',(1.,0.,0.));
#1948=DIRECTION('',(0.,0.,1.));
#1949=DIRECTION('center_axis',(-1.,0.,0.));
#1950=DIRECTION('ref_axis',(0.,-1.,0.));
#1951=DIRECTION('',(0.,1.,0.));
#1952=DIRECTION('',(0.,-1.,0.));
#1953=DIRECTION('',(0.,0.,1.));
#1954=DIRECTION('center_axis',(0.,1.,0.));
#1955=DIRECTION('ref_axis',(-1.,0.,0.));
#1956=DIRECTION('',(1.,0.,0.));
#1957=DIRECTION('',(-1.,0.,0.));
#1958=DIRECTION('',(0.,0.,1.));
#1959=DIRECTION('center_axis',(1.,0.,0.));
#1960=DIRECTION('ref_axis',(0.,1.,0.));
#1961=DIRECTION('',(0.,-1.,0.));
#1962=DIRECTION('',(0.,1.,0.));
#1963=DIRECTION('center_axis',(0.,-1.,0.));
#1964=DIRECTION('ref_axis',(1.,0.,0.));
#1965=DIRECTION('',(-1.,0.,0.));
#1966=DIRECTION('',(0.,0.,1.));
#1967=DIRECTION('',(1.,0.,0.));
#1968=DIRECTION('',(0.,0.,1.));
#1969=DIRECTION('center_axis',(-1.,0.,0.));
#1970=DIRECTION('ref_axis',(0.,-1.,0.));
#1971=DIRECTION('',(0.,1.,0.));
#1972=DIRECTION('',(0.,-1.,0.));
#1973=DIRECTION('',(0.,0.,1.));
#1974=DIRECTION('center_axis',(0.,1.,0.));
#1975=DIRECTION('ref_axis',(-1.,0.,0.));
#1976=DIRECTION('',(1.,0.,0.));
#1977=DIRECTION('',(-1.,0.,0.));
#1978=DIRECTION('',(0.,0.,1.));
#1979=DIRECTION('center_axis',(1.,0.,0.));
#1980=DIRECTION('ref_axis',(0.,1.,0.));
#1981=DIRECTION('',(0.,-1.,0.));
#1982=DIRECTION('',(0.,1.,0.));
#1983=DIRECTION('center_axis',(0.,1.,0.));
#1984=DIRECTION('ref_axis',(-1.,0.,0.));
#1985=DIRECTION('',(-1.,0.,0.));
#1986=DIRECTION('',(0.,0.,1.));
#1987=DIRECTION('',(-1.,0.,0.));
#1988=DIRECTION('',(0.,0.,1.));
#1989=DIRECTION('center_axis',(1.,0.,0.));
#1990=DIRECTION('ref_axis',(0.,1.,0.));
#1991=DIRECTION('',(0.,1.,0.));
#1992=DIRECTION('',(0.,1.,0.));
#1993=DIRECTION('',(0.,0.,1.));
#1994=DIRECTION('center_axis',(0.,-1.,0.));
#1995=DIRECTION('ref_axis',(1.,0.,0.));
#1996=DIRECTION('',(1.,0.,0.));
#1997=DIRECTION('',(1.,0.,0.));
#1998=DIRECTION('',(0.,0.,1.));
#1999=DIRECTION('center_axis',(-1.,0.,0.));
#2000=DIRECTION('ref_axis',(0.,-1.,0.));
#2001=DIRECTION('',(0.,-1.,0.));
#2002=DIRECTION('',(0.,-1.,0.));
#2003=DIRECTION('center_axis',(0.,0.,1.));
#2004=DIRECTION('ref_axis',(1.,0.,0.));
#2005=DIRECTION('center_axis',(0.,0.,1.));
#2006=DIRECTION('ref_axis',(1.,0.,0.));
#2007=CARTESIAN_POINT('',(0.,0.,0.));
#2008=CARTESIAN_POINT('Origin',(47.48,80.21,6.25));
#2009=CARTESIAN_POINT('',(47.48,80.21,6.25));
#2010=CARTESIAN_POINT('',(47.48,90.21,6.25));
#2011=CARTESIAN_POINT('',(47.48,80.21,6.25));
#2012=CARTESIAN_POINT('',(47.48,80.21,9.75));
#2013=CARTESIAN_POINT('',(47.48,80.21,4.625));
#2014=CARTESIAN_POINT('',(47.48,90.21,9.75));
#2015=CARTESIAN_POINT('',(47.48,80.21,9.75));
#2016=CARTESIAN_POINT('',(47.48,90.21,3.125));
#2017=CARTESIAN_POINT('Origin',(38.48,90.21,6.25));
#2018=CARTESIAN_POINT('',(38.48,90.21,6.25));
#2019=CARTESIAN_POINT('',(38.48,80.21,6.25));
#2020=CARTESIAN_POINT('',(38.48,90.21,6.25));
#2021=CARTESIAN_POINT('',(38.48,90.21,9.75));
#2022=CARTESIAN_POINT('',(38.48,90.21,3.125));
#2023=CARTESIAN_POINT('',(38.48,80.21,9.75));
#2024=CARTESIAN_POINT('',(38.48,90.21,9.75));
#2025=CARTESIAN_POINT('',(38.48,80.21,4.625));
#2026=CARTESIAN_POINT('Origin',(42.98,85.21,9.75));
#2027=CARTESIAN_POINT('',(64.47,90.21,9.75));
#2028=CARTESIAN_POINT('',(59.47,80.21,9.75));
#2029=CARTESIAN_POINT('Origin',(42.98,85.21,6.25));
#2030=CARTESIAN_POINT('',(59.47,80.21,6.25));
#2031=CARTESIAN_POINT('',(64.47,90.21,6.25));
#2032=CARTESIAN_POINT('Origin',(47.,30.355,1.));
#2033=CARTESIAN_POINT('',(47.,30.355,1.));
#2034=CARTESIAN_POINT('',(33.,30.355,1.));
#2035=CARTESIAN_POINT('',(47.,30.355,1.));
#2036=CARTESIAN_POINT('',(47.,30.355,3.));
#2037=CARTESIAN_POINT('',(47.,30.355,1.));
#2038=CARTESIAN_POINT('',(33.,30.355,3.));
#2039=CARTESIAN_POINT('',(44.99,30.355,3.));
#2040=CARTESIAN_POINT('',(33.,30.355,1.));
#2041=CARTESIAN_POINT('Origin',(47.,16.355,1.));
#2042=CARTESIAN_POINT('',(47.,16.355,1.));
#2043=CARTESIAN_POINT('',(47.,16.355,1.));
#2044=CARTESIAN_POINT('',(47.,16.355,3.));
#2045=CARTESIAN_POINT('',(47.,16.355,1.));
#2046=CARTESIAN_POINT('',(47.,30.73,3.));
#2047=CARTESIAN_POINT('Origin',(33.,16.355,1.));
#2048=CARTESIAN_POINT('',(33.,16.355,1.));
#2049=CARTESIAN_POINT('',(33.,16.355,1.));
#2050=CARTESIAN_POINT('',(33.,16.355,3.));
#2051=CARTESIAN_POINT('',(33.,16.355,1.));
#2052=CARTESIAN_POINT('',(37.99,16.355,3.));
#2053=CARTESIAN_POINT('Origin',(33.,30.355,1.));
#2054=CARTESIAN_POINT('',(33.,30.355,1.));
#2055=CARTESIAN_POINT('',(33.,37.73,3.));
#2056=CARTESIAN_POINT('Origin',(40.,23.355,1.));
#2057=CARTESIAN_POINT('Origin',(69.11,52.855,1.));
#2058=CARTESIAN_POINT('',(69.11,52.855,1.));
#2059=CARTESIAN_POINT('',(55.11,52.855,1.));
#2060=CARTESIAN_POINT('',(69.11,52.855,1.));
#2061=CARTESIAN_POINT('',(69.11,52.855,3.));
#2062=CARTESIAN_POINT('',(69.11,52.855,1.));
#2063=CARTESIAN_POINT('',(55.11,52.855,3.));
#2064=CARTESIAN_POINT('',(56.045,52.855,3.));
#2065=CARTESIAN_POINT('',(55.11,52.855,1.));
#2066=CARTESIAN_POINT('Origin',(69.11,38.855,1.));
#2067=CARTESIAN_POINT('',(69.11,38.855,1.));
#2068=CARTESIAN_POINT('',(69.11,38.855,1.));
#2069=CARTESIAN_POINT('',(69.11,38.855,3.));
#2070=CARTESIAN_POINT('',(69.11,38.855,1.));
#2071=CARTESIAN_POINT('',(69.11,41.98,3.));
#2072=CARTESIAN_POINT('Origin',(55.11,38.855,1.));
#2073=CARTESIAN_POINT('',(55.11,38.855,1.));
#2074=CARTESIAN_POINT('',(55.11,38.855,1.));
#2075=CARTESIAN_POINT('',(55.11,38.855,3.));
#2076=CARTESIAN_POINT('',(55.11,38.855,1.));
#2077=CARTESIAN_POINT('',(49.045,38.855,3.));
#2078=CARTESIAN_POINT('Origin',(55.11,52.855,1.));
#2079=CARTESIAN_POINT('',(55.11,52.855,1.));
#2080=CARTESIAN_POINT('',(55.11,48.98,3.));
#2081=CARTESIAN_POINT('Origin',(62.11,45.855,1.));
#2082=CARTESIAN_POINT('Origin',(47.,52.855,1.));
#2083=CARTESIAN_POINT('',(47.,52.855,1.));
#2084=CARTESIAN_POINT('',(33.,52.855,1.));
#2085=CARTESIAN_POINT('',(47.,52.855,1.));
#2086=CARTESIAN_POINT('',(47.,52.855,3.));
#2087=CARTESIAN_POINT('',(47.,52.855,1.));
#2088=CARTESIAN_POINT('',(33.,52.855,3.));
#2089=CARTESIAN_POINT('',(44.99,52.855,3.));
#2090=CARTESIAN_POINT('',(33.,52.855,1.));
#2091=CARTESIAN_POINT('Origin',(47.,38.855,1.));
#2092=CARTESIAN_POINT('',(47.,38.855,1.));
#2093=CARTESIAN_POINT('',(47.,38.855,1.));
#2094=CARTESIAN_POINT('',(47.,38.855,3.));
#2095=CARTESIAN_POINT('',(47.,38.855,1.));
#2096=CARTESIAN_POINT('',(47.,41.98,3.));
#2097=CARTESIAN_POINT('Origin',(33.,38.855,1.));
#2098=CARTESIAN_POINT('',(33.,38.855,1.));
#2099=CARTESIAN_POINT('',(33.,38.855,1.));
#2100=CARTESIAN_POINT('',(33.,38.855,3.));
#2101=CARTESIAN_POINT('',(33.,38.855,1.));
#2102=CARTESIAN_POINT('',(37.99,38.855,3.));
#2103=CARTESIAN_POINT('Origin',(33.,52.855,1.));
#2104=CARTESIAN_POINT('',(33.,52.855,1.));
#2105=CARTESIAN_POINT('',(33.,48.98,3.));
#2106=CARTESIAN_POINT('Origin',(40.,45.855,1.));
#2107=CARTESIAN_POINT('Origin',(69.11,30.355,1.));
#2108=CARTESIAN_POINT('',(69.11,30.355,1.));
#2109=CARTESIAN_POINT('',(55.11,30.355,1.));
#2110=CARTESIAN_POINT('',(69.11,30.355,1.));
#2111=CARTESIAN_POINT('',(69.11,30.355,3.));
#2112=CARTESIAN_POINT('',(69.11,30.355,1.));
#2113=CARTESIAN_POINT('',(55.11,30.355,3.));
#2114=CARTESIAN_POINT('',(56.045,30.355,3.));
#2115=CARTESIAN_POINT('',(55.11,30.355,1.));
#2116=CARTESIAN_POINT('Origin',(69.11,16.355,1.));
#2117=CARTESIAN_POINT('',(69.11,16.355,1.));
#2118=CARTESIAN_POINT('',(69.11,16.355,1.));
#2119=CARTESIAN_POINT('',(69.11,16.355,3.));
#2120=CARTESIAN_POINT('',(69.11,16.355,1.));
#2121=CARTESIAN_POINT('',(69.11,30.73,3.));
#2122=CARTESIAN_POINT('Origin',(55.11,16.355,1.));
#2123=CARTESIAN_POINT('',(55.11,16.355,1.));
#2124=CARTESIAN_POINT('',(55.11,16.355,1.));
#2125=CARTESIAN_POINT('',(55.11,16.355,3.));
#2126=CARTESIAN_POINT('',(55.11,16.355,1.));
#2127=CARTESIAN_POINT('',(49.045,16.355,3.));
#2128=CARTESIAN_POINT('Origin',(55.11,30.355,1.));
#2129=CARTESIAN_POINT('',(55.11,30.355,1.));
#2130=CARTESIAN_POINT('',(55.11,37.73,3.));
#2131=CARTESIAN_POINT('Origin',(62.11,23.355,1.));
#2132=CARTESIAN_POINT('Origin',(75.96,80.21,3.));
#2133=CARTESIAN_POINT('',(75.96,80.21,3.));
#2134=CARTESIAN_POINT('',(10.,80.21,3.));
#2135=CARTESIAN_POINT('',(75.96,80.21,3.));
#2136=CARTESIAN_POINT('',(75.96,80.21,13.));
#2137=CARTESIAN_POINT('',(75.96,80.21,3.));
#2138=CARTESIAN_POINT('',(10.,80.21,13.));
#2139=CARTESIAN_POINT('',(59.47,80.21,13.));
#2140=CARTESIAN_POINT('',(10.,80.21,3.));
#2141=CARTESIAN_POINT('Origin',(75.96,10.,3.));
#2142=CARTESIAN_POINT('',(75.96,10.,3.));
#2143=CARTESIAN_POINT('',(75.96,10.,3.));
#2144=CARTESIAN_POINT('',(75.96,10.,13.));
#2145=CARTESIAN_POINT('',(75.96,10.,3.));
#2146=CARTESIAN_POINT('',(75.96,27.5525,13.));
#2147=CARTESIAN_POINT('Origin',(10.,10.,3.));
#2148=CARTESIAN_POINT('',(10.,10.,3.));
#2149=CARTESIAN_POINT('',(10.,10.,3.));
#2150=CARTESIAN_POINT('',(10.,10.,13.));
#2151=CARTESIAN_POINT('',(10.,10.,3.));
#2152=CARTESIAN_POINT('',(26.49,10.,13.));
#2153=CARTESIAN_POINT('Origin',(10.,80.21,3.));
#2154=CARTESIAN_POINT('',(10.,80.21,3.));
#2155=CARTESIAN_POINT('',(10.,62.6575,13.));
#2156=CARTESIAN_POINT('Origin',(42.98,45.105,3.));
#2157=CARTESIAN_POINT('',(64.95,73.41,3.));
#2158=CARTESIAN_POINT('',(40.45,73.41,3.));
#2159=CARTESIAN_POINT('',(64.95,73.41,3.));
#2160=CARTESIAN_POINT('',(64.95,59.21,3.));
#2161=CARTESIAN_POINT('',(64.95,59.21,3.));
#2162=CARTESIAN_POINT('',(40.45,59.21,3.));
#2163=CARTESIAN_POINT('',(40.45,59.21,3.));
#2164=CARTESIAN_POINT('',(40.45,73.41,3.));
#2165=CARTESIAN_POINT('',(14.5,39.46,3.));
#2166=CARTESIAN_POINT('Origin',(18.,39.46,3.));
#2167=CARTESIAN_POINT('Origin',(80.96,85.21,3.));
#2168=CARTESIAN_POINT('',(79.51,85.21,13.));
#2169=CARTESIAN_POINT('Origin',(80.96,85.21,13.));
#2170=CARTESIAN_POINT('',(79.51,85.21,3.));
#2171=CARTESIAN_POINT('',(79.51,85.21,3.));
#2172=CARTESIAN_POINT('Origin',(80.96,85.21,3.));
#2173=CARTESIAN_POINT('Origin',(5.,5.,3.));
#2174=CARTESIAN_POINT('',(3.55,5.,13.));
#2175=CARTESIAN_POINT('Origin',(5.,5.,13.));
#2176=CARTESIAN_POINT('',(3.55,5.,3.));
#2177=CARTESIAN_POINT('',(3.55,5.,3.));
#2178=CARTESIAN_POINT('Origin',(5.,5.,3.));
#2179=CARTESIAN_POINT('Origin',(5.,85.21,3.));
#2180=CARTESIAN_POINT('',(3.55,85.21,13.));
#2181=CARTESIAN_POINT('Origin',(5.,85.21,13.));
#2182=CARTESIAN_POINT('',(3.55,85.21,3.));
#2183=CARTESIAN_POINT('',(3.55,85.21,3.));
#2184=CARTESIAN_POINT('Origin',(5.,85.21,3.));
#2185=CARTESIAN_POINT('Origin',(80.96,5.,3.));
#2186=CARTESIAN_POINT('',(79.51,5.,13.));
#2187=CARTESIAN_POINT('Origin',(80.96,5.,13.));
#2188=CARTESIAN_POINT('',(79.51,5.,3.));
#2189=CARTESIAN_POINT('',(79.51,5.,3.));
#2190=CARTESIAN_POINT('Origin',(80.96,5.,3.));
#2191=CARTESIAN_POINT('Origin',(42.98,45.105,13.));
#2192=CARTESIAN_POINT('',(0.,90.21,13.));
#2193=CARTESIAN_POINT('',(0.,0.,13.));
#2194=CARTESIAN_POINT('',(0.,90.21,13.));
#2195=CARTESIAN_POINT('',(85.96,0.,13.));
#2196=CARTESIAN_POINT('',(0.,0.,13.));
#2197=CARTESIAN_POINT('',(85.96,90.21,13.));
#2198=CARTESIAN_POINT('',(85.96,0.,13.));
#2199=CARTESIAN_POINT('',(85.96,90.21,13.));
#2200=CARTESIAN_POINT('Origin',(42.98,45.105,3.));
#2201=CARTESIAN_POINT('Origin',(42.98,45.105,3.));
#2202=CARTESIAN_POINT('Origin',(42.98,45.105,3.));
#2203=CARTESIAN_POINT('Origin',(85.96,90.21,0.));
#2204=CARTESIAN_POINT('',(85.96,90.21,0.));
#2205=CARTESIAN_POINT('',(0.,90.21,0.));
#2206=CARTESIAN_POINT('',(85.96,90.21,0.));
#2207=CARTESIAN_POINT('',(0.,90.21,0.));
#2208=CARTESIAN_POINT('',(85.96,90.21,0.));
#2209=CARTESIAN_POINT('Origin',(85.96,0.,0.));
#2210=CARTESIAN_POINT('',(85.96,0.,0.));
#2211=CARTESIAN_POINT('',(85.96,0.,0.));
#2212=CARTESIAN_POINT('',(85.96,0.,0.));
#2213=CARTESIAN_POINT('Origin',(0.,0.,0.));
#2214=CARTESIAN_POINT('',(0.,0.,0.));
#2215=CARTESIAN_POINT('',(0.,0.,0.));
#2216=CARTESIAN_POINT('',(0.,0.,0.));
#2217=CARTESIAN_POINT('Origin',(0.,90.21,0.));
#2218=CARTESIAN_POINT('',(0.,90.21,0.));
#2219=CARTESIAN_POINT('Origin',(42.98,45.105,3.));
#2220=CARTESIAN_POINT('Origin',(42.98,45.105,0.));
#2221=CARTESIAN_POINT('Origin',(64.95,73.41,1.));
#2222=CARTESIAN_POINT('',(64.95,73.41,1.));
#2223=CARTESIAN_POINT('',(40.45,73.41,1.));
#2224=CARTESIAN_POINT('',(64.95,73.41,1.));
#2225=CARTESIAN_POINT('',(64.95,73.41,1.));
#2226=CARTESIAN_POINT('',(40.45,73.41,1.));
#2227=CARTESIAN_POINT('Origin',(64.95,59.21,1.));
#2228=CARTESIAN_POINT('',(64.95,59.21,1.));
#2229=CARTESIAN_POINT('',(64.95,59.21,1.));
#2230=CARTESIAN_POINT('',(64.95,59.21,1.));
#2231=CARTESIAN_POINT('Origin',(40.45,59.21,1.));
#2232=CARTESIAN_POINT('',(40.45,59.21,1.));
#2233=CARTESIAN_POINT('',(40.45,59.21,1.));
#2234=CARTESIAN_POINT('',(40.45,59.21,1.));
#2235=CARTESIAN_POINT('Origin',(40.45,73.41,1.));
#2236=CARTESIAN_POINT('',(40.45,73.41,1.));
#2237=CARTESIAN_POINT('Origin',(52.7,66.31,1.));
#2238=CARTESIAN_POINT('Origin',(18.,39.46,1.));
#2239=CARTESIAN_POINT('',(14.5,39.46,1.));
#2240=CARTESIAN_POINT('Origin',(18.,39.46,1.));
#2241=CARTESIAN_POINT('',(14.5,39.46,1.));
#2242=CARTESIAN_POINT('Origin',(18.,39.46,1.));
#2243=CARTESIAN_POINT('Origin',(18.,39.46,0.));
#2244=CARTESIAN_POINT('',(14.5,39.46,13.));
#2245=CARTESIAN_POINT('Origin',(18.,39.46,13.));
#2246=CARTESIAN_POINT('',(14.5,39.46,15.5));
#2247=CARTESIAN_POINT('',(14.5,39.46,0.));
#2248=CARTESIAN_POINT('Origin',(18.,39.46,15.5));
#2249=CARTESIAN_POINT('Origin',(33.,16.355,0.));
#2250=CARTESIAN_POINT('',(47.,16.355,15.5));
#2251=CARTESIAN_POINT('',(33.,16.355,15.5));
#2252=CARTESIAN_POINT('',(37.99,16.355,15.5));
#2253=CARTESIAN_POINT('',(47.,16.355,13.));
#2254=CARTESIAN_POINT('',(47.,16.355,0.));
#2255=CARTESIAN_POINT('',(33.,16.355,13.));
#2256=CARTESIAN_POINT('',(37.99,16.355,13.));
#2257=CARTESIAN_POINT('',(33.,16.355,0.));
#2258=CARTESIAN_POINT('Origin',(33.,30.355,0.));
#2259=CARTESIAN_POINT('',(33.,30.355,15.5));
#2260=CARTESIAN_POINT('',(33.,37.73,15.5));
#2261=CARTESIAN_POINT('',(33.,30.355,13.));
#2262=CARTESIAN_POINT('',(33.,37.73,13.));
#2263=CARTESIAN_POINT('',(33.,30.355,0.));
#2264=CARTESIAN_POINT('Origin',(47.,30.355,0.));
#2265=CARTESIAN_POINT('',(47.,30.355,15.5));
#2266=CARTESIAN_POINT('',(44.99,30.355,15.5));
#2267=CARTESIAN_POINT('',(47.,30.355,13.));
#2268=CARTESIAN_POINT('',(44.99,30.355,13.));
#2269=CARTESIAN_POINT('',(47.,30.355,0.));
#2270=CARTESIAN_POINT('Origin',(47.,16.355,0.));
#2271=CARTESIAN_POINT('',(47.,30.73,15.5));
#2272=CARTESIAN_POINT('',(47.,30.73,13.));
#2273=CARTESIAN_POINT('Origin',(5.,5.,0.));
#2274=CARTESIAN_POINT('',(3.55,5.,13.));
#2275=CARTESIAN_POINT('Origin',(5.,5.,13.));
#2276=CARTESIAN_POINT('',(3.55,5.,15.5));
#2277=CARTESIAN_POINT('',(3.55,5.,0.));
#2278=CARTESIAN_POINT('Origin',(5.,5.,15.5));
#2279=CARTESIAN_POINT('Origin',(80.96,85.21,0.));
#2280=CARTESIAN_POINT('',(79.51,85.21,13.));
#2281=CARTESIAN_POINT('Origin',(80.96,85.21,13.));
#2282=CARTESIAN_POINT('',(79.51,85.21,15.5));
#2283=CARTESIAN_POINT('',(79.51,85.21,0.));
#2284=CARTESIAN_POINT('Origin',(80.96,85.21,15.5));
#2285=CARTESIAN_POINT('Origin',(80.96,5.,0.));
#2286=CARTESIAN_POINT('',(79.51,5.,13.));
#2287=CARTESIAN_POINT('Origin',(80.96,5.,13.));
#2288=CARTESIAN_POINT('',(79.51,5.,15.5));
#2289=CARTESIAN_POINT('',(79.51,5.,0.));
#2290=CARTESIAN_POINT('Origin',(80.96,5.,15.5));
#2291=CARTESIAN_POINT('Origin',(5.,85.21,0.));
#2292=CARTESIAN_POINT('',(3.55,85.21,13.));
#2293=CARTESIAN_POINT('Origin',(5.,85.21,13.));
#2294=CARTESIAN_POINT('',(3.55,85.21,15.5));
#2295=CARTESIAN_POINT('',(3.55,85.21,0.));
#2296=CARTESIAN_POINT('Origin',(5.,85.21,15.5));
#2297=CARTESIAN_POINT('Origin',(33.,38.855,0.));
#2298=CARTESIAN_POINT('',(47.,38.855,15.5));
#2299=CARTESIAN_POINT('',(33.,38.855,15.5));
#2300=CARTESIAN_POINT('',(37.99,38.855,15.5));
#2301=CARTESIAN_POINT('',(47.,38.855,13.));
#2302=CARTESIAN_POINT('',(47.,38.855,0.));
#2303=CARTESIAN_POINT('',(33.,38.855,13.));
#2304=CARTESIAN_POINT('',(37.99,38.855,13.));
#2305=CARTESIAN_POINT('',(33.,38.855,0.));
#2306=CARTESIAN_POINT('Origin',(33.,52.855,0.));
#2307=CARTESIAN_POINT('',(33.,52.855,15.5));
#2308=CARTESIAN_POINT('',(33.,48.98,15.5));
#2309=CARTESIAN_POINT('',(33.,52.855,13.));
#2310=CARTESIAN_POINT('',(33.,48.98,13.));
#2311=CARTESIAN_POINT('',(33.,52.855,0.));
#2312=CARTESIAN_POINT('Origin',(47.,52.855,0.));
#2313=CARTESIAN_POINT('',(47.,52.855,15.5));
#2314=CARTESIAN_POINT('',(44.99,52.855,15.5));
#2315=CARTESIAN_POINT('',(47.,52.855,13.));
#2316=CARTESIAN_POINT('',(44.99,52.855,13.));
#2317=CARTESIAN_POINT('',(47.,52.855,0.));
#2318=CARTESIAN_POINT('Origin',(47.,38.855,0.));
#2319=CARTESIAN_POINT('',(47.,41.98,15.5));
#2320=CARTESIAN_POINT('',(47.,41.98,13.));
#2321=CARTESIAN_POINT('Origin',(55.11,38.855,0.));
#2322=CARTESIAN_POINT('',(69.11,38.855,15.5));
#2323=CARTESIAN_POINT('',(55.11,38.855,15.5));
#2324=CARTESIAN_POINT('',(49.045,38.855,15.5));
#2325=CARTESIAN_POINT('',(69.11,38.855,13.));
#2326=CARTESIAN_POINT('',(69.11,38.855,0.));
#2327=CARTESIAN_POINT('',(55.11,38.855,13.));
#2328=CARTESIAN_POINT('',(49.045,38.855,13.));
#2329=CARTESIAN_POINT('',(55.11,38.855,0.));
#2330=CARTESIAN_POINT('Origin',(55.11,52.855,0.));
#2331=CARTESIAN_POINT('',(55.11,52.855,15.5));
#2332=CARTESIAN_POINT('',(55.11,48.98,15.5));
#2333=CARTESIAN_POINT('',(55.11,52.855,13.));
#2334=CARTESIAN_POINT('',(55.11,48.98,13.));
#2335=CARTESIAN_POINT('',(55.11,52.855,0.));
#2336=CARTESIAN_POINT('Origin',(69.11,52.855,0.));
#2337=CARTESIAN_POINT('',(69.11,52.855,15.5));
#2338=CARTESIAN_POINT('',(56.045,52.855,15.5));
#2339=CARTESIAN_POINT('',(69.11,52.855,13.));
#2340=CARTESIAN_POINT('',(56.045,52.855,13.));
#2341=CARTESIAN_POINT('',(69.11,52.855,0.));
#2342=CARTESIAN_POINT('Origin',(69.11,38.855,0.));
#2343=CARTESIAN_POINT('',(69.11,41.98,15.5));
#2344=CARTESIAN_POINT('',(69.11,41.98,13.));
#2345=CARTESIAN_POINT('Origin',(55.11,16.355,0.));
#2346=CARTESIAN_POINT('',(69.11,16.355,15.5));
#2347=CARTESIAN_POINT('',(55.11,16.355,15.5));
#2348=CARTESIAN_POINT('',(49.045,16.355,15.5));
#2349=CARTESIAN_POINT('',(69.11,16.355,13.));
#2350=CARTESIAN_POINT('',(69.11,16.355,0.));
#2351=CARTESIAN_POINT('',(55.11,16.355,13.));
#2352=CARTESIAN_POINT('',(49.045,16.355,13.));
#2353=CARTESIAN_POINT('',(55.11,16.355,0.));
#2354=CARTESIAN_POINT('Origin',(55.11,30.355,0.));
#2355=CARTESIAN_POINT('',(55.11,30.355,15.5));
#2356=CARTESIAN_POINT('',(55.11,37.73,15.5));
#2357=CARTESIAN_POINT('',(55.11,30.355,13.));
#2358=CARTESIAN_POINT('',(55.11,37.73,13.));
#2359=CARTESIAN_POINT('',(55.11,30.355,0.));
#2360=CARTESIAN_POINT('Origin',(69.11,30.355,0.));
#2361=CARTESIAN_POINT('',(69.11,30.355,15.5));
#2362=CARTESIAN_POINT('',(56.045,30.355,15.5));
#2363=CARTESIAN_POINT('',(69.11,30.355,13.));
#2364=CARTESIAN_POINT('',(56.045,30.355,13.));
#2365=CARTESIAN_POINT('',(69.11,30.355,0.));
#2366=CARTESIAN_POINT('Origin',(69.11,16.355,0.));
#2367=CARTESIAN_POINT('',(69.11,30.73,15.5));
#2368=CARTESIAN_POINT('',(69.11,30.73,13.));
#2369=CARTESIAN_POINT('Origin',(40.45,59.21,0.));
#2370=CARTESIAN_POINT('',(64.95,59.21,15.5));
#2371=CARTESIAN_POINT('',(40.45,59.21,15.5));
#2372=CARTESIAN_POINT('',(41.715,59.21,15.5));
#2373=CARTESIAN_POINT('',(64.95,59.21,13.));
#2374=CARTESIAN_POINT('',(64.95,59.21,0.));
#2375=CARTESIAN_POINT('',(40.45,59.21,13.));
#2376=CARTESIAN_POINT('',(41.715,59.21,13.));
#2377=CARTESIAN_POINT('',(40.45,59.21,0.));
#2378=CARTESIAN_POINT('Origin',(40.45,73.41,0.));
#2379=CARTESIAN_POINT('',(40.45,73.41,15.5));
#2380=CARTESIAN_POINT('',(40.45,59.2575,15.5));
#2381=CARTESIAN_POINT('',(40.45,73.41,13.));
#2382=CARTESIAN_POINT('',(40.45,59.2575,13.));
#2383=CARTESIAN_POINT('',(40.45,73.41,0.));
#2384=CARTESIAN_POINT('Origin',(64.95,73.41,0.));
#2385=CARTESIAN_POINT('',(64.95,73.41,15.5));
#2386=CARTESIAN_POINT('',(53.965,73.41,15.5));
#2387=CARTESIAN_POINT('',(64.95,73.41,13.));
#2388=CARTESIAN_POINT('',(53.965,73.41,13.));
#2389=CARTESIAN_POINT('',(64.95,73.41,0.));
#2390=CARTESIAN_POINT('Origin',(64.95,59.21,0.));
#2391=CARTESIAN_POINT('',(64.95,52.1575,15.5));
#2392=CARTESIAN_POINT('',(64.95,52.1575,13.));
#2393=CARTESIAN_POINT('Origin',(85.96,90.21,13.));
#2394=CARTESIAN_POINT('',(85.96,90.21,13.));
#2395=CARTESIAN_POINT('',(0.,90.21,13.));
#2396=CARTESIAN_POINT('',(85.96,90.21,13.));
#2397=CARTESIAN_POINT('',(0.,90.21,15.5));
#2398=CARTESIAN_POINT('',(0.,90.21,13.));
#2399=CARTESIAN_POINT('',(85.96,90.21,15.5));
#2400=CARTESIAN_POINT('',(85.96,90.21,15.5));
#2401=CARTESIAN_POINT('',(85.96,90.21,13.));
#2402=CARTESIAN_POINT('Origin',(85.96,0.,13.));
#2403=CARTESIAN_POINT('',(85.96,0.,13.));
#2404=CARTESIAN_POINT('',(85.96,0.,13.));
#2405=CARTESIAN_POINT('',(85.96,0.,15.5));
#2406=CARTESIAN_POINT('',(85.96,0.,15.5));
#2407=CARTESIAN_POINT('',(85.96,0.,13.));
#2408=CARTESIAN_POINT('Origin',(0.,0.,13.));
#2409=CARTESIAN_POINT('',(0.,0.,13.));
#2410=CARTESIAN_POINT('',(0.,0.,13.));
#2411=CARTESIAN_POINT('',(0.,0.,15.5));
#2412=CARTESIAN_POINT('',(0.,0.,15.5));
#2413=CARTESIAN_POINT('',(0.,0.,13.));
#2414=CARTESIAN_POINT('Origin',(0.,90.21,13.));
#2415=CARTESIAN_POINT('',(0.,90.21,13.));
#2416=CARTESIAN_POINT('',(0.,90.21,15.5));
#2417=CARTESIAN_POINT('Origin',(42.98,45.105,15.5));
#2418=CARTESIAN_POINT('Origin',(42.98,45.105,13.));
#2419=UNCERTAINTY_MEASURE_WITH_UNIT(LENGTH_MEASURE(0.01),#2423,
'DISTANCE_ACCURACY_VALUE',
'Maximum model space distance between geometric entities at asserted c
onnectivities');
#2420=UNCERTAINTY_MEASURE_WITH_UNIT(LENGTH_MEASURE(0.01),#2423,
'DISTANCE_ACCURACY_VALUE',
'Maximum model space distance between geometric entities at asserted c
onnectivities');
#2421=(
GEOMETRIC_REPRESENTATION_CONTEXT(3)
GLOBAL_UNCERTAINTY_ASSIGNED_CONTEXT((#2419))
GLOBAL_UNIT_ASSIGNED_CONTEXT((#2423,#2425,#2426))
REPRESENTATION_CONTEXT('','3D')
);
#2422=(
GEOMETRIC_REPRESENTATION_CONTEXT(3)
GLOBAL_UNCERTAINTY_ASSIGNED_CONTEXT((#2420))
GLOBAL_UNIT_ASSIGNED_CONTEXT((#2423,#2425,#2426))
REPRESENTATION_CONTEXT('','3D')
);
#2423=(
LENGTH_UNIT()
NAMED_UNIT(*)
SI_UNIT(.MILLI.,.METRE.)
);
#2424=(
LENGTH_UNIT()
NAMED_UNIT(*)
SI_UNIT($,.METRE.)
);
#2425=(
NAMED_UNIT(*)
PLANE_ANGLE_UNIT()
SI_UNIT($,.RADIAN.)
);
#2426=(
NAMED_UNIT(*)
SI_UNIT($,.STERADIAN.)
SOLID_ANGLE_UNIT()
);
#2427=SHAPE_DEFINITION_REPRESENTATION(#2428,#2429);
#2428=PRODUCT_DEFINITION_SHAPE('',$,#2431);
#2429=SHAPE_REPRESENTATION('',(#1523),#2421);
#2430=PRODUCT_DEFINITION_CONTEXT('part definition',#2435,'design');
#2431=PRODUCT_DEFINITION('2026-09-14-15-02-35-834','Macropad v2',#2432,
#2430);
#2432=PRODUCT_DEFINITION_FORMATION('',$,#2437);
#2433=PRODUCT_RELATED_PRODUCT_CATEGORY('Macropad v2','Macropad v2',(#2437));
#2434=APPLICATION_PROTOCOL_DEFINITION('international standard',
'automotive_design',2009,#2435);
#2435=APPLICATION_CONTEXT(
'Core Data for Automotive Mechanical Design Process');
#2436=PRODUCT_CONTEXT('part definition',#2435,'mechanical');
#2437=PRODUCT('2026-09-14-15-02-35-834','Macropad v2',$,(#2436));
#2438=PRESENTATION_STYLE_ASSIGNMENT((#2439));
#2439=SURFACE_STYLE_USAGE(.BOTH.,#2440);
#2440=SURFACE_SIDE_STYLE('',(#2441));
#2441=SURFACE_STYLE_FILL_AREA(#2442);
#2442=FILL_AREA_STYLE('Steel - Satin',(#2443));
#2443=FILL_AREA_STYLE_COLOUR('Steel - Satin',#2444);
#2444=COLOUR_RGB('Steel - Satin',0.627450980392157,0.627450980392157,0.627450980392157);
ENDSEC;
END-ISO-10303-21;
